<svg width="402" height="255" viewBox="0 0 402 255" fill="none" xmlns="http://www.w3.org/2000/svg"><circle cx="11" cy="11" r="11" transform="translate(0 231)" fill="#C4DF9B"/><circle cx="11" cy="11" r="11" transform="translate(0 209)" fill="#C4DF9B"/><circle cx="11" cy="11" r="11" transform="translate(157 188)" fill="#C4DF9B"/><circle cx="11" cy="11" r="11" transform="translate(157 166)" fill="#C4DF9B"/><circle cx="11" cy="11" r="11" transform="translate(218 231)" fill="#C4DF9B"/><circle cx="11" cy="11" r="11" transform="translate(218 209)" fill="#C4DF9B"/><circle cx="11" cy="11" r="11" transform="translate(380 179)" fill="#C4DF9B"/><circle cx="11" cy="11" r="11" transform="translate(380 161)" fill="#C4DF9B"/><path d="M168 165.5l-157 44h217.5l164.5-44H168z" stroke="#C4DF9B" stroke-width="4"/><path d="M228.5 252.5h-213a5 5 0 0 1-5-5V215a5 5 0 0 1 5-5h213L392 165.5V198l-163.5 54.5z" stroke="#C4DF9B" stroke-width="4"/><path d="M11 231h218l163-50M73.5 209.5l95-22h141" stroke="#C4DF9B" stroke-width="4"/><path d="M168 170v36m61 7v36m162-86v36M11 213v36" stroke="#fff" stroke-width="2" stroke-linecap="round"/><rect x="2" y="2" width="136" height="126" rx="3" transform="translate(241 20)" stroke="#C4DF9B" stroke-width="4"/><rect width="20" height="40" rx="10" transform="translate(253)" fill="#C4DF9B"/><rect width="20" height="40" rx="10" transform="translate(301)" fill="#C4DF9B"/><rect width="20" height="40" rx="10" transform="translate(349)" fill="#C4DF9B"/><rect width="114" height="61" rx="5" transform="translate(252 69)" fill="#C4DF9B"/><path d="M276.813 108h-12.43v-2.12l6.158-6.716c.889-.99 1.52-1.815 1.892-2.476.38-.668.57-1.337.57-2.005 0-.88-.249-1.592-.748-2.133-.491-.542-1.155-.813-1.993-.813-.999 0-1.773.305-2.324.914-.55.61-.825 1.443-.825 2.501h-3.085c0-1.125.254-2.137.762-3.034a5.328 5.328 0 0 1 2.196-2.107c.957-.5 2.057-.75 3.301-.75 1.794 0 3.208.454 4.24 1.36 1.041.896 1.562 2.14 1.562 3.731 0 .923-.263 1.892-.787 2.908-.517 1.007-1.367 2.154-2.552 3.44l-4.52 4.837h8.582V108zm14.297-3.74l4.62-9.883h1.59V106h-1.29v-9.54l-4.468 9.54h-.914l-4.554-9.754V106h-1.279V94.377h1.687l4.608 9.883zm14.159 1.955c-.989 0-1.884-.244-2.686-.73a4.999 4.999 0 0 1-1.858-2.03c-.444-.875-.666-1.852-.666-2.934v-.461c0-1.118.214-2.124.644-3.019.437-.895 1.042-1.597 1.816-2.105a4.443 4.443 0 0 1 2.513-.774c1.411 0 2.528.484 3.352 1.45.83.96 1.246 2.274 1.246 3.943v.72h-8.293v.247c0 1.317.376 2.417 1.128 3.297.759.874 1.711 1.31 2.857 1.31.688 0 1.293-.124 1.816-.375.53-.25 1.01-.652 1.44-1.203l.805.612c-.946 1.368-2.317 2.052-4.114 2.052zm-.237-10.957c-.967 0-1.783.354-2.449 1.063-.659.71-1.06 1.662-1.203 2.858h6.972v-.14c-.036-1.117-.355-2.027-.957-2.729-.601-.701-1.389-1.052-2.363-1.052zm11.398 9.872c.895 0 1.643-.25 2.245-.752.608-.509.938-1.164.988-1.966h1.235a3.667 3.667 0 0 1-.666 1.944 4.181 4.181 0 0 1-1.632 1.365 4.871 4.871 0 0 1-2.17.494c-1.526 0-2.736-.53-3.631-1.59-.888-1.06-1.332-2.485-1.332-4.275v-.387c0-1.146.2-2.16.601-3.04.401-.881.974-1.561 1.72-2.041.751-.48 1.628-.72 2.63-.72 1.276 0 2.325.38 3.148 1.139.831.759 1.275 1.758 1.332 2.997h-1.235c-.057-.91-.387-1.644-.988-2.202-.595-.559-1.347-.838-2.256-.838-1.16 0-2.063.419-2.707 1.257-.637.837-.956 2.012-.956 3.523v.376c0 1.482.319 2.64.956 3.47.644.83 1.55 1.246 2.718 1.246zm15.522-10.753V106h-1.289v-4.684h-3.61L324.219 106H322.8l2.922-4.845c-.795-.207-1.415-.609-1.859-1.203-.437-.594-.655-1.296-.655-2.105 0-1.053.376-1.895 1.128-2.525.76-.63 1.783-.945 3.072-.945h4.544zm-7.455 3.491c0 .68.215 1.24.645 1.676.436.437 1.042.662 1.815.677h3.706v-4.748h-3.287c-.895 0-1.6.214-2.116.644-.509.43-.763 1.013-.763 1.751zm11.01-3.491h1.29v10.538h6.263V94.377h1.289v10.538h1.181l-.096 4.533h-1.182V106h-8.744V94.377zM355.285 106c-.129-.365-.211-.906-.247-1.622a4.52 4.52 0 0 1-1.73 1.364 5.295 5.295 0 0 1-2.212.473c-1.118 0-2.023-.312-2.718-.935-.688-.623-1.031-1.41-1.031-2.363 0-1.132.469-2.027 1.407-2.686.945-.658 2.26-.988 3.942-.988h2.331v-1.321c0-.83-.257-1.482-.773-1.955-.509-.48-1.253-.72-2.234-.72-.896 0-1.637.23-2.224.688-.587.458-.88 1.01-.88 1.654l-1.29-.01c0-.925.43-1.723 1.29-2.396.858-.68 1.915-1.02 3.168-1.02 1.296 0 2.317.325 3.061.977.752.644 1.14 1.547 1.16 2.707v5.5c0 1.124.119 1.966.355 2.524V106h-1.375zm-4.039-.924c.86 0 1.626-.207 2.299-.623a3.658 3.658 0 0 0 1.482-1.665v-2.557h-2.299c-1.281.015-2.284.251-3.007.71-.724.45-1.085 1.074-1.085 1.869 0 .651.24 1.192.72 1.622.486.43 1.117.644 1.89.644z" fill="#fff"/></svg>