<svg width="313" height="175" viewBox="0 0 313 175" fill="none" xmlns="http://www.w3.org/2000/svg"><circle cx="7.35" cy="7.35" r="5.85" transform="translate(17.15 45.15)" stroke="#C4DF9B" stroke-width="3"/><circle cx="7.35" cy="7.35" r="5.85" transform="translate(17.15 94.15)" stroke="#C4DF9B" stroke-width="3"/><circle cx="7.35" cy="7.35" r="5.85" transform="translate(17.15 143.15)" stroke="#C4DF9B" stroke-width="3"/><circle cx="24.5" cy="24.5" r="22.5" transform="translate(0 28)" stroke="#C4DF9B" stroke-width="4"/><circle cx="24.5" cy="24.5" r="22.5" transform="translate(0 77)" stroke="#C4DF9B" stroke-width="4"/><circle cx="24.5" cy="24.5" r="22.5" transform="translate(0 126)" stroke="#C4DF9B" stroke-width="4"/><path d="M194.888 26.634l7.994 39.235c.396 1.942-1.971 3.215-3.373 1.814l-15.923-15.907a2 2 0 0 0-3.178.473l-5.057 9.472a2 2 0 0 1-2.266.994l-18.808-4.871c-1.527-.396-2.89 1.05-2.405 2.55l7.319 22.665c.242.75-.01 1.555-.464 2.2-1.574 2.243-.56 4.272-10.624 6.978-1.961.528 24.439 20.301 39.606 31.661l.8.6c.676.506.955 1.377.706 2.184l-3.89 12.63c-.448 1.454.83 2.857 2.32 2.546l36.686-7.635a2 2 0 0 1 2.407 1.958V171a2 2 0 0 0 2 2h3.51a2 2 0 0 0 2-2v-34.976a2 2 0 0 1 2.28-1.98l35.708 5.04a2 2 0 0 0 2.257-2.277l-2.074-13.815a2 2 0 0 1 .784-1.902l36.56-27.189a2 2 0 0 0-.056-3.25l-8.082-5.59a2 2 0 0 1-.813-2.085l5.152-22.794c.333-1.472-1.024-2.769-2.48-2.37l-17.689 4.852a2 2 0 0 1-2.341-1.083l-4.331-9.272a2 2 0 0 0-3.146-.644l-14.792 13.24c-1.426 1.275-3.657.013-3.299-1.866l6.98-36.608c.309-1.618-1.361-2.894-2.841-2.172l-13.666 6.667a2 2 0 0 1-2.646-.863l-14.18-26.842c-.738-1.395-2.725-1.427-3.506-.056l-15.352 26.933a2 2 0 0 1-2.667.78l-12.231-6.414c-1.493-.783-3.225.518-2.889 2.17z" fill="#C4DF9B" stroke="#C4DF9B" stroke-width="4"/><path d="M25.5 29.5h200M25.5 77h200m-200 49h200m-200 47h200" stroke="#C4DF9B" stroke-width="4" stroke-linecap="round"/></svg>