<svg width="421" height="209" viewBox="0 0 421 209" fill="none" xmlns="http://www.w3.org/2000/svg"><path d="M155.751 109.82L8.5 206.5l307.924.497a5.002 5.002 0 0 0 3.544-1.465l87.996-87.996c3.15-3.15.919-8.536-3.535-8.536H158.495a5 5 0 0 0-2.744.82zM160 42h12a3 3 0 0 1 3 3v63h-15V42zm242 2a3 3 0 0 1 3-3h13v66h-16V44z" stroke="#C4DF9B" stroke-width="4"/><path d="M158.5 40v68.5l-13.5 9V52.945A5 5 0 0 1 146.93 49l11.57-9zM3 136h15a5 5 0 0 1 5 5v66H3v-71z" fill="#C4DF9B"/><path d="M302 144a5 5 0 0 1 5-5h14v68h-19v-63z" fill="#fff"/><path d="M17 137.716V196.5L3.5 205 3 138l6.094-4.353c3.31-2.364 7.906.002 7.906 4.069z" stroke="#C4DF9B" stroke-width="4"/><path d="M420.5 40v68L406 122.5V57.106a5 5 0 0 1 1.394-3.463L420.5 40z" fill="#C4DF9B"/><path d="M336 137.658v51.633L321 204v-63.73l6.554-6.234c3.184-3.03 8.446-.773 8.446 3.622zM159 109.5l157.5 97m-302-2l398-94.5" stroke="#C4DF9B" stroke-width="4"/><path d="M230 151V2" stroke="#C4DF9B" stroke-width="4" stroke-linecap="round"/><path d="M284.82 1H239a5 5 0 0 0-5 5v30a5 5 0 0 0 5 5h45.82c3.96 0 6.35-4.385 4.202-7.712l-6.183-9.576a5 5 0 0 1 0-5.424l6.182-9.576c2.148-3.327-.24-7.712-4.2-7.712z" fill="#C4DF9B"/></svg>