<svg width="310" height="270" viewBox="0 0 310 270" fill="none" xmlns="http://www.w3.org/2000/svg"><circle cx="15" cy="15" r="15" transform="translate(23 23)" fill="#fff"/><path stroke="#fff" stroke-width="3" stroke-linecap="round" stroke-linejoin="round" d="M39.5 1.5v17m0 40v17m35-36h-17m-39 0h-17m20.52-16.358l-4.949-4.95M57.95 60.071L53 55.121m-28.754-3l-4.992 4.907m40.86-38.907l-4.993 4.907"/><path stroke="#fff" stroke-width="4" stroke-linecap="round" stroke-linejoin="round" d="M285 20v36m15.268-8.268l-31.177-18m33.177 0l-31.177 18M279 15l6 4.5 5-4.5m1 46.5l-6-4.5-5 4.5m27.96-14.318l-7.425 1.06-.353 6.718M262 32.967l6.616-3.533L266.654 23m37.631 0l-2.452 7.088 5.812 3.386m-37.91 21.978l-.116-7.499L263 46.755"/><path d="M211.5 163v99.5a5 5 0 0 1-5 5H72a5 5 0 0 1-5-5V163l52.5-52.5H159l52.5 52.5zM140 47.5l-19 19v41h38v-41l-19-19zM293.5 197h-77v65.5a5 5 0 0 0 5 5h67a5 5 0 0 0 5-5V197zm3.929-11H216.5v10.5h80.429a5 5 0 0 0 3.536-1.464l.5-.5c3.15-3.15.919-8.536-3.536-8.536zM216.5 140v43h86.063c3.413 0 5.823-3.343 4.743-6.581l-12.666-38a5 5 0 0 0-4.744-3.419H221.5a5 5 0 0 0-5 5z" stroke="#fff" stroke-width="4"/><path d="M117.035 87.464l-66.5 66.5a5 5 0 0 0 0 7.071l3.459 3.459a5 5 0 0 0 7.041.029L118.5 108h42l56.464 56.464a5.001 5.001 0 0 0 7.072 0l3.453-3.453a5 5 0 0 0 .025-7.046l-65.545-66.476A5 5 0 0 0 158.408 86h-37.837a5 5 0 0 0-3.535 1.464z" stroke="#fff" stroke-width="5"/><path d="M67.5 103v31L84 117.5V103H67.5z" stroke="#fff" stroke-width="4"/><circle cx="18" cy="18" r="16" transform="translate(121.5 117)" stroke="#fff" stroke-width="4"/><path d="M188.5 179h4a3 3 0 0 1 3 3v36h-10v-36a3 3 0 0 1 3-3zM122 214.5V265h35v-50.5c-2.741-20.316-32.1-20.294-35 0zM86.5 179h4a3 3 0 0 1 3 3v36h-10v-36a3 3 0 0 1 3-3zm169 31h18a3 3 0 0 1 3 3v24h-24v-24a3 3 0 0 1 3-3zm-119-146h6a3 3 0 0 1 3 3v14h-12V67a3 3 0 0 1 3-3z" stroke="#fff" stroke-width="4"/><path d="M136.464 36.536L106.5 66.5a4.95 4.95 0 1 0 7 7L140 47l26.5 26.5a4.95 4.95 0 1 0 7-7l-29.965-29.964a5 5 0 0 0-7.07 0zM139.5 119v30m-14-14h29m-33 79h37m-19-1v51" stroke="#fff" stroke-width="4"/></svg>