<svg width="317" height="268" viewBox="0 0 317 268" fill="none" xmlns="http://www.w3.org/2000/svg"><rect x="2" y="2" width="103" height="158" rx="3" transform="translate(92 105)" stroke="#fff" stroke-width="4"/><path d="M255.784 136.105l-45.5-23.365c-3.327-1.708-7.284.708-7.284 4.448V260.5a5 5 0 0 0 5 5h45.5a5 5 0 0 0 5-5V140.553a5 5 0 0 0-2.716-4.448z" stroke="#fff" stroke-width="4"/><rect x="1.5" y="1.5" width="118" height="10" rx="3.5" transform="translate(65 78)" stroke="#fff" stroke-width="3"/><rect x="2" y="2" width="30" height="51" rx="3" transform="translate(154 155)" stroke="#fff" stroke-width="4"/><rect x="2" y="2" width="36" height="93" rx="3" transform="translate(106 155)" stroke="#fff" stroke-width="4"/><rect x=".5" y=".5" width="47" height="11" rx="4.5" transform="translate(102 252)" fill="#fff" stroke="#fff"/><rect x=".5" y=".5" width="41" height="14" rx="4.5" transform="translate(150 216)" fill="#fff" stroke="#fff"/><path d="M185.376 94H85.503c-4.484 0-5.912 6.046-1.9 8.051a4.25 4.25 0 0 0 1.9.449h99.873c3.901 0 5.741-4.816 2.834-7.417A4.25 4.25 0 0 0 185.376 94z" fill="#fff"/><path d="M286.298 131.602l-90.5-46.826c-3.328-1.722-7.298.694-7.298 4.44v1.214a5 5 0 0 0 2.737 4.46l90.5 45.925c3.326 1.687 7.263-.73 7.263-4.46v-.312a5 5 0 0 0-2.702-4.441z" stroke="#fff" stroke-width="3"/><path d="M242.5 137.5h-3.75a4.25 4.25 0 0 0 0 8.5h4.44c1.169 0 2.302-.41 3.201-1.159l2.81-2.342a5 5 0 0 0 1.799-3.84V89c3.296 0 5.178-3.763 3.2-6.4l-3.281-4.375c-1.975-2.634-5.913-2.672-7.94-.078l-3.554 4.549C237.424 85.258 239.249 89 242.5 89v48.5zM6.62 248h91.612c3.21 0 5.588-2.982 4.875-6.111L62.342 63.048c-1.15-5.046-8.27-5.235-9.685-.257L1.81 241.633C.903 244.825 3.3 248 6.62 248zm303.636 0h-38.741c-3.29 0-5.674-3.123-4.819-6.3l18.253-67.797c1.308-4.857 8.16-4.961 9.615-.147l20.488 67.798c.97 3.21-1.443 6.446-4.796 6.446z" fill="#C4DF9B"/><rect width="13" height="14" rx="5" transform="translate(45 252)" fill="#fff"/><rect width="13" height="14" rx="5" transform="translate(284 252)" fill="#fff"/><mask id="a" fill="#fff"><path fill-rule="evenodd" clip-rule="evenodd" d="M44.07 31.354A17.954 17.954 0 0 0 50 18c0-9.941-8.059-18-18-18-7.181 0-13.38 4.205-16.269 10.287A13.052 13.052 0 0 0 13 10C5.82 10 0 15.82 0 23c0 5.529 3.452 10.252 8.318 12.131A13.043 13.043 0 0 0 8 38c0 7.18 5.82 13 13 13 4.692 0 8.804-2.486 11.09-6.213a9 9 0 0 0 11.98-13.433z"/></mask><path d="M44.07 31.354l-2.013-2.225-2.448 2.214 2.437 2.226 2.023-2.215zM15.73 10.287l-.627 2.934 2.32.496 1.017-2.143-2.71-1.287zM8.318 35.131l2.926.66.57-2.526-2.415-.932-1.081 2.798zm23.772 9.656l1.97-2.261-2.673-2.33-1.855 3.023 2.558 1.568zM47 18c0 4.414-1.903 8.38-4.943 11.13l4.025 4.45A20.954 20.954 0 0 0 53 18h-6zM32 3c8.284 0 15 6.716 15 15h6C53 6.402 43.598-3 32-3v6zm-13.559 8.574C20.851 6.5 26.021 3 32 3v-6C23.617-3 16.388 1.911 13.021 9l5.42 2.574zm-2.082-4.22A16.052 16.052 0 0 0 13 7v6c.725 0 1.428.077 2.104.221l1.255-5.867zM13 7C4.163 7-3 14.163-3 23h6c0-5.523 4.477-10 10-10V7zM-3 23c0 6.81 4.253 12.618 10.237 14.93l2.162-5.597A10.005 10.005 0 0 1 3 23h-6zm8.39 11.472A16.043 16.043 0 0 0 5.001 38h6c0-.762.085-1.502.244-2.21l-5.853-1.318zM5.001 38c0 8.837 7.164 16 16 16v-6c-5.523 0-10-4.477-10-10H5zm16 16c5.778 0 10.838-3.065 13.647-7.644l-5.115-3.137A9.992 9.992 0 0 1 21 48v6zm9.119-6.95A11.965 11.965 0 0 0 38 50v-6a5.966 5.966 0 0 1-3.94-1.474l-3.941 4.523zM38 50c6.627 0 12-5.373 12-12h-6a6 6 0 0 1-6 6v6zm12-12c0-3.51-1.51-6.67-3.907-8.86l-4.047 4.429A5.976 5.976 0 0 1 44 38h6z" transform="translate(207 20)" fill="#fff" mask="url(#a)"/><circle cx="7.5" cy="7.5" r="6.5" transform="translate(205 12)" stroke="#fff" stroke-width="2"/><circle cx="5" cy="5" r="4.5" transform="translate(213)" stroke="#fff"/></svg>