<svg width="287" height="248" viewBox="0 0 287 248" fill="none" xmlns="http://www.w3.org/2000/svg"><circle cx="15" cy="15" r="15" transform="translate(23 23)" fill="#fff"/><path stroke="#fff" stroke-width="3" stroke-linecap="round" stroke-linejoin="round" d="M39.5 1.5v17m0 40v17m35-36h-17m-39 0h-17m20.52-16.358l-4.949-4.95M57.95 60.071L53 55.121m-28.754-3l-4.992 4.907m40.86-38.907l-4.993 4.907"/><path stroke="#fff" stroke-width="4" stroke-linecap="round" stroke-linejoin="round" d="M262 20v36m15.268-8.268l-31.177-18m33.177 0l-31.177 18M256 15l6 4.5 5-4.5m1 46.5l-6-4.5-5 4.5m27.96-14.318l-7.425 1.06-.353 6.718M239 32.967l6.616-3.533L243.654 23m37.631 0l-2.452 7.088 5.812 3.386m-37.91 21.978l-.116-7.499L240 46.755"/><circle cx="4.05" cy="4.05" r="3.55" transform="translate(68.45 174.45)" stroke="#fff"/><circle cx="4.05" cy="4.05" r="3.55" transform="translate(68.45 201.45)" stroke="#fff"/><circle cx="4.05" cy="4.05" r="3.55" transform="translate(68.45 228.45)" stroke="#fff"/><circle cx="13.5" cy="13.5" r="12" transform="translate(59 165)" stroke="#fff" stroke-width="3"/><circle cx="13.5" cy="13.5" r="12" transform="translate(59 192)" stroke="#fff" stroke-width="3"/><circle cx="13.5" cy="13.5" r="12" transform="translate(59 219)" stroke="#fff" stroke-width="3"/><circle cx="4.05" cy="4.05" r="3.55" transform="translate(223.45 174.45)" stroke="#fff"/><circle cx="4.05" cy="4.05" r="3.55" transform="translate(223.45 201.45)" stroke="#fff"/><circle cx="4.05" cy="4.05" r="3.55" transform="translate(223.45 228.45)" stroke="#fff"/><circle cx="13.5" cy="13.5" r="12" transform="translate(214 165)" stroke="#fff" stroke-width="3"/><circle cx="13.5" cy="13.5" r="12" transform="translate(214 192)" stroke="#fff" stroke-width="3"/><circle cx="13.5" cy="13.5" r="12" transform="translate(214 219)" stroke="#fff" stroke-width="3"/><path d="M242.5 241v-74.178c0-3.364-3.54-5.552-6.549-4.048a4.524 4.524 0 0 1-5.7-1.409l-76.2-106.219c-1.992-2.776-6.118-2.782-8.118-.012l-77.01 106.703a4.471 4.471 0 0 1-5.04 1.624c-2.894-.965-5.883 1.184-5.883 4.235V241a5 5 0 0 0 5 5h174.5a5 5 0 0 0 5-5z" stroke="#fff" stroke-width="4"/><path d="M139.993 31.522l-83.62 116.804a7.989 7.989 0 0 0 1.64 10.998c1.002.766 1.906 1.455 2.702 2.06 3.488 2.653 8.47 2.041 11.15-1.508 11.33-15.013 52.489-69.67 77.018-103.935a2.006 2.006 0 0 1 3.271-.012c23.536 32.51 66.177 89.001 77.58 104.083 2.609 3.45 7.423 4.142 10.921 1.709l3.367-2.342a8 8 0 0 0 1.901-11.273L161.077 31.443c-5.215-7.171-15.922-7.131-21.084.08z" stroke="#fff" stroke-width="6"/><rect x="2" y="2" width="26" height="26" rx="2" transform="translate(135 93)" stroke="#fff" stroke-width="4"/><path stroke="#fff" stroke-width="4" d="M150 93v30m-15-17h30"/><rect width="41" height="11" rx="5" transform="translate(130 126)" fill="#fff"/><path d="M146.238 158.889l-22.034 25.707a4.982 4.982 0 0 0-1.204 3.247v40.163a4.995 4.995 0 0 0 5 4.994h44.5a5 5 0 0 0 5-5v-40.124a5 5 0 0 0-1.233-3.289L153.8 158.854a5 5 0 0 0-7.563.035z" stroke="#fff" stroke-width="4"/><rect x="2" y="2" width="56" height="6" rx="3" transform="translate(120 236)" fill="#fff" stroke="#fff" stroke-width="4"/><circle cx="4" cy="4" r="2.5" transform="translate(133 203)" stroke="#fff" stroke-width="3"/></svg>