<svg width="334" height="164" viewBox="0 0 334 164" fill="none" xmlns="http://www.w3.org/2000/svg"><circle cx="4.05" cy="4.05" r="3.55" transform="translate(64.45 37.45)" stroke="#fff"/><circle cx="4.05" cy="4.05" r="3.55" transform="translate(64.45 64.45)" stroke="#fff"/><circle cx="4.05" cy="4.05" r="3.55" transform="translate(64.45 91.45)" stroke="#fff"/><circle cx="13.5" cy="13.5" r="12" transform="translate(55 28)" stroke="#fff" stroke-width="3"/><circle cx="13.5" cy="13.5" r="12" transform="translate(55 55)" stroke="#fff" stroke-width="3"/><circle cx="13.5" cy="13.5" r="12" transform="translate(55 82)" stroke="#fff" stroke-width="3"/><circle cx="4.05" cy="4.05" r="3.55" transform="translate(256.45 37.45)" stroke="#fff"/><circle cx="4.05" cy="4.05" r="3.55" transform="translate(256.45 64.45)" stroke="#fff"/><circle cx="4.05" cy="4.05" r="3.55" transform="translate(256.45 91.45)" stroke="#fff"/><circle cx="13.5" cy="13.5" r="12" transform="translate(247 28)" stroke="#fff" stroke-width="3"/><circle cx="13.5" cy="13.5" r="12" transform="translate(247 55)" stroke="#fff" stroke-width="3"/><circle cx="13.5" cy="13.5" r="12" transform="translate(247 82)" stroke="#fff" stroke-width="3"/><rect x="2" y="2" width="222" height="108" rx="3" transform="translate(51)" stroke="#fff" stroke-width="4"/><rect x="1.5" y="1.5" width="156" height="67" rx="3.5" transform="translate(85 30)" stroke="#fff" stroke-width="3"/><path stroke="#fff" stroke-width="3" d="M85.11 49.29h158.68M85.11 66.803h158.68M85.11 82.565h158.68"/><path d="M49.953 113.838L2 162" stroke="#fff" stroke-width="4" stroke-linecap="round" stroke-linejoin="round"/><path d="M164 114v24.519M278 112l17.438 17.514" stroke="#fff" stroke-width="4" stroke-linecap="round"/><circle cx="30" cy="30" r="30" transform="translate(274 62)" fill="#C4DF9B"/><circle cx="22" cy="22" r="22" transform="translate(282 29)" fill="#C4DF9B"/><circle cx="17" cy="17" r="17" transform="translate(287 3)" fill="#C4DF9B"/><path d="M301 26v113" stroke="#fff" stroke-width="3" stroke-linecap="round" stroke-linejoin="round"/><path d="M292 39.5l9 15m8.5-6l-8 12M289 85l12 19m13.5-11l-13 17.5" stroke="#fff" stroke-linecap="round"/><ellipse cx="21.5" cy="21.397" rx="21.5" ry="21.397" transform="translate(246 84.08)" fill="#C4DF9B"/><ellipse cx="15.767" cy="15.691" rx="15.767" ry="15.691" transform="translate(251.733 60.544)" fill="#C4DF9B"/><ellipse cx="12.183" cy="12.125" rx="12.183" ry="12.125" transform="translate(255.317 42)" fill="#C4DF9B"/><path d="M265.35 58.404V139" stroke="#fff" stroke-width="3" stroke-linecap="round" stroke-linejoin="round"/><path d="M258.9 68.033l6.45 10.699m6.091-4.28l-5.733 8.559m-8.958 17.474l8.6 13.552m9.675-7.846l-9.317 12.482" stroke="#fff" stroke-linecap="round"/></svg>