<svg width="225" height="227" viewBox="0 0 225 227" fill="none" xmlns="http://www.w3.org/2000/svg"><circle cx="4.05" cy="4.05" r="3.55" transform="translate(17.45 152.45)" stroke="#fff"/><circle cx="4.05" cy="4.05" r="3.55" transform="translate(17.45 179.45)" stroke="#fff"/><circle cx="4.05" cy="4.05" r="3.55" transform="translate(17.45 206.45)" stroke="#fff"/><circle cx="13.5" cy="13.5" r="12" transform="translate(8 143)" stroke="#fff" stroke-width="3"/><circle cx="13.5" cy="13.5" r="12" transform="translate(8 170)" stroke="#fff" stroke-width="3"/><circle cx="13.5" cy="13.5" r="12" transform="translate(8 197)" stroke="#fff" stroke-width="3"/><circle cx="4.05" cy="4.05" r="3.55" transform="translate(174.45 152.45)" stroke="#fff"/><circle cx="4.05" cy="4.05" r="3.55" transform="translate(174.45 179.45)" stroke="#fff"/><circle cx="4.05" cy="4.05" r="3.55" transform="translate(174.45 206.45)" stroke="#fff"/><circle cx="13.5" cy="13.5" r="12" transform="translate(165 143)" stroke="#fff" stroke-width="3"/><circle cx="13.5" cy="13.5" r="12" transform="translate(165 170)" stroke="#fff" stroke-width="3"/><circle cx="13.5" cy="13.5" r="12" transform="translate(165 197)" stroke="#fff" stroke-width="3"/><path d="M170 218.96v.562a5 5 0 0 0 5 5h38.154c3.376 0 5.136-4.02 2.846-6.5-4.8-5.2-15-3.167-19.5-1.5-7.485-8.911-18.437-5.25-24.508-1.399-1.3.825-1.992 2.298-1.992 3.837z" fill="#fff" stroke="#fff" stroke-width="3"/><path d="M191.5 219v-75.999c0-3.426-3.963-5.331-6.638-3.191a4.086 4.086 0 0 1-5.872-.809L103.05 33.146c-1.99-2.776-6.117-2.782-8.117-.012L18.34 139.258a3.612 3.612 0 0 1-5.328.586C10.682 137.773 7 139.42 7 142.536V219a5 5 0 0 0 5 5h174.5a5 5 0 0 0 5-5z" stroke="#fff" stroke-width="4"/><path d="M88.993 9.522L5.373 126.326a7.989 7.989 0 0 0 1.64 10.998c1.002.766 1.906 1.455 2.702 2.06 3.488 2.653 8.47 2.041 11.15-1.508 11.33-15.013 52.489-69.67 77.018-103.935a2.006 2.006 0 0 1 3.271-.012c23.536 32.51 66.177 89.001 77.58 104.083 2.609 3.45 7.423 4.142 10.921 1.709l3.367-2.342a8 8 0 0 0 1.901-11.273L110.077 9.443c-5.215-7.171-15.922-7.13-21.084.08z" stroke="#fff" stroke-width="6"/><rect x="2" y="2" width="26" height="26" rx="2" transform="translate(84 71)" stroke="#fff" stroke-width="4"/><path stroke="#fff" stroke-width="4" d="M99 71v30M84 84h30"/><rect width="41" height="11" rx="5" transform="translate(80 104)" fill="#fff"/><path d="M116 104.516H83c5.2-9.6 13.167-6.333 16.5-3.5 0 0 .5-6.6 8.5-7 8-.4 8.667 6.833 8 10.5z" fill="#C4DF9B"/><path d="M95.238 136.889l-22.034 25.707A4.982 4.982 0 0 0 72 165.843v40.163A4.995 4.995 0 0 0 77 211h44.5a5 5 0 0 0 5-5v-40.124a5 5 0 0 0-1.233-3.289L102.8 136.854a5 5 0 0 0-7.563.035z" stroke="#fff" stroke-width="4"/><rect x="2" y="2" width="56" height="6" rx="3" transform="translate(69 214)" fill="#fff" stroke="#fff" stroke-width="4"/><circle cx="4" cy="4" r="2.5" transform="translate(82 181)" stroke="#fff" stroke-width="3"/><circle cx="30" cy="30" r="30" transform="translate(165 137)" fill="#C4DF9B"/><circle cx="22" cy="22" r="22" transform="translate(173 104)" fill="#C4DF9B"/><circle cx="17" cy="17" r="17" transform="translate(178 78)" fill="#C4DF9B"/><path d="M192 101v113" stroke="#fff" stroke-width="3" stroke-linecap="round" stroke-linejoin="round"/><path d="M183 114.5l9 15m8.5-6l-8 12M180 160l12 19m13.5-11l-13 17.5" stroke="#fff" stroke-linecap="round"/></svg>