<svg xmlns="http://www.w3.org/2000/svg" width="90" height="89" viewBox="0 0 90 89"><g fill="none" fill-rule="evenodd"><path fill="#C1B4A8" fill-rule="nonzero" d="M87.8 37.7c-.5-2.3-5.6-2.5-4.2-4.1 4.2-5.1-7.1-20.8-11.2-23.5-.2-.1-1.8-1.1-3.9-2.7C67 6.3 60.9.8 55.5.8c-2.3 0-4.8 1.5-6.1 2.5-.8.6-1.8.8-2.8.6-.4-.1-.7-.4-.9-.7-2.2-2.4-4.3-1.8-5.8-1.9-3-.2-11.9 3.2-11.9 3.2-7.6.2-14.1 8.4-14.2 8.5 0 0-2.3 3.5-2.9 4.3l-2.8 4c-8.3 8.3-6.3 25.1-5.9 28.2 0 .3.2.6.5.8l1.3.3c1.2.3 1.7 1.7.9 2.7-.5.1-.9.5-.9.9-.2 3.2 1.4 8.5 1.4 8.5C7 76.1 21.6 80.4 21.6 80.4c1.7 3.8 7.1 4.5 8.8 4.6.3 0 .7.6 1 .4l4-2.2c1.6-.9 2.2.8 2.6 1.7.8 1.9 7.8 2 8.7 1.9h.2l11.7-2c4.4-.3 9.2-3.8 10-4.4.1-.1.2-.1.3-.1 1.7-.5 2.2-1.7 2.3-2.7.1-.8.8-1.3 1.5-1.1 4.2 1.2 5.5-3.2 5.5-3.2s-.7-4-.7-4.2c0-.1.9-.1 1.6 0 .5 0 .9-.3 1.2-.7.9-1.7 3.5-4.7 3.6-4.8l-.7-3.3H85c.3 0 .5-.1.7-.3 3.6-3.6 3.1-17.6 2.1-22.3zM78 45.4c0 9.5-.5 17.5-6.5 23.8-6.4 6.8-17.3 10.4-27.4 10.4-3.1 0-6.1-.4-8.9-1.1-11.4-3-18.8-11.8-22.7-22.8-1.3-3.7-3.8-7.3-3.8-11.5 0-13.2 8.8-22.9 19.5-29 5.2-3 9.5-6.4 15.9-6.4 8.6 0 15 4.2 21.1 9.2 6.7 5.5 12.8 12.3 14 21.4.2 1.6-1.2 4.3-1.2 6z"/><path stroke="#7A6356" stroke-width=".5" d="M78.2 45.7c0 9.5-.5 17.5-6.5 23.8-6.5 6.8-17.3 10.4-27.4 10.4-3.1 0-6.1-.4-8.9-1.1C23.9 75.9 16.6 67 12.7 56c-1.3-3.7-3.8-7.3-3.8-11.5 0-13.2 8.8-22.9 19.5-29 5.2-3 9.5-6.4 15.9-6.4 8.6 0 15 4.2 21.1 9.2 6.7 5.5 12.8 12.3 14 21.4.2 1.6-1.2 4.3-1.2 6z"/><path fill="#A08675" fill-rule="nonzero" d="M74.6 45.5c0 4.1 0 8.2-1 12.3-.5 2-1.2 4-2.2 5.7-1 1.8-2.4 3.4-3.9 4.7-3.1 2.8-6.8 4.7-10.7 6-3.9 1.3-8 2-12.1 2-4.1.1-8.3-.7-12.1-2.3-3.8-1.6-7.2-4.1-9.9-7.3-2.7-3.1-4.8-6.7-6.3-10.6-.4-1-.7-1.9-1.1-2.9L14 50.6c-.8-1.9-1.6-3.8-1.6-5.9 0-2.1.2-4.1.7-6.1.5-2 1.2-4 2.2-5.8 1-1.8 2.1-3.6 3.4-5.1 1.3-1.6 2.8-3 4.3-4.4 1.6-1.3 3.2-2.5 5-3.7l5.3-3.2c1.8-1 3.6-2.1 5.5-2.8 1.9-.7 4-1 6.1-.9 2.1.1 4.1.4 6.1 1s3.9 1.5 5.6 2.6c1.8 1.1 3.4 2.3 5.1 3.5 1.6 1.3 3.2 2.6 4.7 4 3 2.8 5.6 6.1 7.4 9.8.9 1.9 1.5 3.8 1.8 5.9.3 1 0 2.1-.3 3-.2 1-.6 2-.7 3zm0 0c0-1 .4-2 .7-3 .3-1 .5-2 .2-3-.3-2-1-4-1.9-5.8-1.8-3.7-4.4-6.9-7.4-9.7-1.5-1.4-3.1-2.7-4.7-4-1.6-1.3-3.3-2.5-5.1-3.5-1.8-1-3.6-1.9-5.6-2.5-1.9-.6-4-.9-6-1-2-.1-4.1.2-6 .9-1.9.7-3.7 1.7-5.5 2.7L28 19.8c-1.7 1.1-3.4 2.3-5 3.6-1.6 1.3-3 2.8-4.3 4.4-1.3 1.6-2.4 3.3-3.4 5.1-1 1.8-1.7 3.7-2.2 5.7-.5 2-.7 4-.7 6.1 0 2 .7 4 1.6 5.9l1.3 2.8c.4.9.7 1.9 1.1 2.9.8 1.9 1.6 3.8 2.7 5.5 1 1.8 2.2 3.4 3.6 5 2.7 3.1 6.1 5.6 9.8 7.2 3.8 1.5 7.9 2.3 12 2.2 4.1 0 8.2-.8 12.1-2 3.9-1.3 7.6-3.2 10.7-5.9 1.5-1.4 2.9-2.9 3.9-4.7 1-1.8 1.8-3.7 2.3-5.7 1-4.1 1.1-8.3 1.1-12.4z"/><path fill="#A08675" fill-rule="nonzero" d="M67.6 31.6c1.8 3.1 3.7 6.2 4.8 9.7.5 1.7.9 3.5.9 5.3 0 1.8-.3 3.6-.8 5.3-1.1 3.5-3 6.6-5.4 9.3-2.4 2.7-5.2 5.1-8.2 7-3.1 1.9-6.5 3.2-10.1 3.7-3.6.5-7.3.1-10.7-1.1-3.4-1.1-6.6-2.9-9.5-5.1-.7-.6-1.4-1.1-2.1-1.7l-2.2-1.5c-1.5-1-2.9-2.2-3.9-3.8-.9-1.6-1.7-3.2-2.2-4.9-.5-1.7-.9-3.5-1-5.3-.1-1.8 0-3.6.3-5.4.3-1.8.7-3.5 1.3-5.3.6-1.7 1.3-3.4 2.1-5l2.6-4.8c.9-1.6 1.8-3.2 2.9-4.6 1.1-1.4 2.6-2.6 4.2-3.5 3.2-1.8 6.8-2.6 10.4-2.6 1.8 0 3.6.2 5.4.4 1.8.2 3.6.5 5.3 1 3.5.8 7 2.1 10 4.1 1.5 1 2.9 2.2 4 3.6.7.6 1 1.5 1.2 2.4.1 1.1.2 2 .7 2.8zm-.1 0c-.4-.8-.6-1.7-.8-2.6-.2-.9-.5-1.8-1.2-2.4-1.2-1.4-2.5-2.6-4-3.6-3-2-6.4-3.2-9.9-4-3.5-.7-7.1-1.3-10.7-1.3-1.8 0-3.6.2-5.3.6-1.7.4-3.4 1.1-5 1.9-1.6.8-3 2-4.1 3.4-1.1 1.4-2 2.9-2.9 4.5L21 33c-.8 1.6-1.5 3.3-2.1 5-.6 1.7-1 3.4-1.3 5.2-.3 1.8-.4 3.6-.3 5.4.1 1.8.4 3.6.9 5.3.5 1.7 1.3 3.3 2.2 4.9.9 1.5 2.4 2.7 3.8 3.7l2.2 1.6c.7.5 1.4 1.1 2.1 1.7 1.4 1.1 2.9 2.1 4.5 3 1.6.9 3.2 1.6 4.9 2.1 3.4 1.2 7.1 1.5 10.6 1s7-1.8 10-3.7c3.1-1.9 5.8-4.2 8.2-6.9 2.3-2.7 4.3-5.8 5.4-9.2.5-1.7.9-3.5.9-5.3 0-1.8-.3-3.6-.8-5.3-1-3.6-2.8-6.8-4.7-9.9z"/><path fill="#A08675" fill-rule="nonzero" d="M63.4 33.9c1.5 2.5 3 5.1 3.9 8 .5 1.4.7 2.9.8 4.4 0 1.5-.2 3-.7 4.4-.9 2.9-2.5 5.5-4.4 7.7-1.9 2.3-4.3 4.2-6.8 5.7-2.5 1.6-5.4 2.6-8.4 3-3 .4-6 .1-8.8-.9-2.8-1-5.4-2.4-7.8-4.2-.6-.5-1.2-.9-1.8-1.4l-1.8-1.3c-1.2-.8-2.4-1.8-3.2-3.1-.7-1.3-1.4-2.6-1.8-4.1-.4-1.4-.7-2.9-.8-4.4-.1-1.5 0-3 .2-4.5s.6-2.9 1.1-4.3c.5-1.4 1.1-2.8 1.7-4.1l2.1-3.9c.7-1.3 1.5-2.6 2.4-3.8 1-1.2 2.2-2.2 3.5-2.9 2.6-1.5 5.7-2.1 8.7-2.1 3 0 5.9.5 8.8 1.2 2.9.7 5.7 1.7 8.2 3.4 1.2.8 2.3 1.8 3.3 3 .6.5.8 1.3 1 2 .1.8.3 1.5.6 2.2zm0 0c-.4-.7-.5-1.4-.7-2.1-.2-.7-.4-1.4-1-1.9-1-1.1-2.1-2.1-3.3-2.9-2.5-1.6-5.3-2.6-8.2-3.2-2.9-.6-5.8-1-8.8-1-1.5 0-2.9.2-4.3.5s-2.8.9-4.1 1.6c-1.3.7-2.4 1.6-3.3 2.7-.9 1.1-1.7 2.4-2.4 3.7l-2.1 3.9c-.7 1.3-1.2 2.7-1.7 4-.9 2.8-1.5 5.7-1.3 8.6.1 1.5.3 2.9.7 4.3.4 1.4 1 2.7 1.8 4 .8 1.2 1.9 2.2 3.1 3l1.8 1.3c.6.4 1.2.9 1.7 1.4 1.2.9 2.4 1.7 3.7 2.5 1.3.7 2.7 1.3 4.1 1.8 2.8.9 5.8 1.2 8.7.8 2.9-.5 5.7-1.5 8.2-3.1 2.5-1.5 4.7-3.5 6.7-5.7 1.9-2.2 3.5-4.8 4.4-7.5.5-1.4.7-2.8.7-4.3s-.2-2.9-.7-4.3c-.7-2.9-2.2-5.5-3.7-8.1z"/><path fill="#A08675" fill-rule="nonzero" d="M56.4 31.3c1.8 1.6 3.7 3.2 5.1 5.2.7 1 1.4 2.1 1.8 3.2.4 1.2.6 2.4.7 3.6.1 2.5-.5 5-1.4 7.2-.9 2.3-2.3 4.4-3.9 6.3-1.6 1.9-3.6 3.4-5.8 4.5-2.2 1-4.7 1.6-7.2 1.5-2.4 0-4.9-.5-7.2-1.3-.6-.2-1.1-.4-1.7-.6l-1.7-.5c-1.2-.3-2.4-.8-3.4-1.6-1.9-1.6-3.4-3.6-4.4-5.9-.9-2.3-1.3-4.8-1.3-7.3 0-1.2.1-2.5.3-3.7l.6-3.6c.2-1.2.5-2.4.9-3.6.5-1.2 1.2-2.3 2-3.2 1.7-1.9 4-3.2 6.3-3.9 2.4-.7 4.8-1.1 7.2-1.3 2.4-.2 4.9 0 7.3.7 1.2.4 2.3.8 3.3 1.5.6.3 1 .8 1.3 1.3.5.5.8 1.1 1.2 1.5zm-.1 0c-.5-.4-.8-1-1.1-1.5-.3-.5-.7-1-1.2-1.2-1-.6-2.2-1.1-3.3-1.4-2.3-.6-4.8-.6-7.1-.3-2.4.3-4.8.8-7 1.5-2.2.8-4.3 2-5.9 3.7-.8.8-1.4 1.8-1.8 2.9-.4 1.1-.7 2.2-.9 3.4l-.7 3.6c-.2 1.2-.3 2.4-.3 3.6 0 2.4.3 4.8 1.1 7 .4 1.1 1 2.2 1.6 3.1.7 1 1.5 1.9 2.3 2.7.9.8 2 1.2 3.1 1.6 1.1.3 2.3.7 3.4 1.2 1.1.4 2.3.7 3.5 1 1.2.2 2.4.3 3.6.3 2.4 0 4.8-.6 6.9-1.7 2.1-1.1 4-2.7 5.5-4.5 1.5-1.8 2.7-3.9 3.7-6.1.9-2.2 1.5-4.5 1.6-6.9 0-1.2-.1-2.4-.5-3.5s-.9-2.2-1.6-3.2c-1.2-2-3.1-3.6-4.9-5.3z"/><path fill="#A08675" fill-rule="nonzero" d="M53.8 34.1c1.4 1.2 2.9 2.5 4 4.1.6.8 1 1.6 1.4 2.5.3.9.5 1.9.5 2.9.1 1.9-.4 3.9-1.1 5.7-.7 1.8-1.8 3.5-3 4.9-1.3 1.5-2.8 2.7-4.5 3.5-1.7.8-3.7 1.3-5.6 1.2-1.9 0-3.8-.4-5.6-1-1-.4-1.9-.6-2.9-.9-.9-.3-1.9-.6-2.6-1.2-1.5-1.3-2.7-2.9-3.4-4.7-.7-1.8-1-3.8-1-5.7 0-1 .1-1.9.2-2.9l.5-2.8c.2-.9.4-1.9.7-2.8.4-.9.9-1.8 1.6-2.5 1.3-1.4 3.1-2.5 4.9-3.1 1.9-.6 3.8-.9 5.7-1.1 1.9-.2 3.9-.1 5.7.5.9.3 1.8.7 2.6 1.2 1 .5 1.2 1.5 1.9 2.2zm-.1 0c-.7-.7-1-1.7-1.8-2.1-.8-.5-1.7-.9-2.6-1.1-1.8-.5-3.8-.5-5.7-.3-1.9.2-3.8.6-5.6 1.2-1.8.6-3.4 1.6-4.7 3-1.3 1.3-1.8 3.2-2.2 5.1l-.5 2.8c-.1.9-.2 1.9-.2 2.8 0 1.9.2 3.8.9 5.5.7 1.8 1.8 3.3 3.2 4.6 1.4 1.2 3.5 1.4 5.2 2.1 1.8.6 3.7 1.1 5.6 1 1.9 0 3.8-.5 5.5-1.3 1.7-.9 3.2-2.1 4.4-3.6 1.2-1.4 2.2-3.1 2.9-4.8.7-1.7 1.2-3.6 1.2-5.5s-.6-3.8-1.7-5.3c-1-1.5-2.4-2.8-3.9-4.1z"/><path fill="#A08675" fill-rule="nonzero" d="M49.8 38.4c.8.7 1.7 1.5 2.4 2.4.7.9 1.2 2 1.2 3.2.1 2.4-.9 4.7-2.4 6.4-.8.9-1.7 1.6-2.8 2.1-1.1.5-2.2.7-3.4.6-1.1 0-2.3-.2-3.3-.6-1-.5-2.2-.4-3.2-1.2-.9-.7-1.7-1.7-2.1-2.8-.5-1.1-.7-2.3-.7-3.4 0-1.2.2-2.3.4-3.4s.5-2.4 1.4-3.3c.8-.9 1.9-1.5 3-1.9 1.1-.3 2.3-.5 3.4-.5s2.3 0 3.4.4c.5.2 1.1.4 1.5.7.7.3.8.9 1.2 1.3zm-.1.1c-.4-.4-.6-1-1.1-1.2-.5-.3-1-.5-1.5-.6-1.1-.2-2.2-.2-3.3 0-2.1.4-4.4.9-5.7 2.5-.7.7-1 1.7-1.2 2.8-.2 1.1-.5 2.2-.5 3.2-.1 2.1.6 4.3 2.2 5.8.7.7 1.9.8 3 1.3 1 .4 2.1.6 3.2.6 2.2 0 4.2-1.2 5.5-2.9 1.3-1.7 2.3-3.7 2.4-5.8.1-1.1-.2-2.1-.8-3.1-.5-1.1-1.4-1.9-2.2-2.6z"/><path fill="#7A6356" fill-rule="nonzero" d="M45.8 43.4c.5.4.7.2.8.8.1.6-.2 1.3-.7 1.9-.1.2-.3.3-.5.4-.7.4-1.4.4-2.2.1-.2-.1-.5-.1-.8-.3-.7-.6-.8-1.5-.6-2.3.1-.4.1-.8.4-1.1.4-.4.9-.6 1.4-.7.6-.1 1.2-.1 1.7.2.2.2.4 1 .5 1zM80 57.8c-.2-.1-.4.1-.3.3.8 1.2 2.6 4 4.1 6.2.2-.3.2-.6.2-.9l-.2-1c-.2-.9.5-1.7 1.4-1.7.3 0 .5-.1.7-.3L80 57.8zm-.6 11.7h.2l-6.2-2.1s.5 1.4.7 2c.1.3.2.5.5.7.7.7 2 1.5 3.8 3.7v-.4c-.2-.9-.6-3.7-.6-3.9 0-.1.8-.1 1.6 0zm-8.2 6.2c-.7-.4-1.5.4-1.2 1.1.3.7.6 1.6 1 2.4.2-.4.4-.8.4-1.2.1-.8.8-1.3 1.5-1.1.3.1.6.1.9.2l-2.6-1.4zM3.4 54.5l3.5-1.6 1.2-2-6.4-.8c.1.2.2.3.3.4l1.3.3c1.2.3 1.7 1.7.9 2.7-.5.1-.8.5-.8 1z"/><path fill="#7A6356" fill-rule="nonzero" d="M55.1 1.2c4.4 0 9.1 5.1 14.8 7.5 5.8 2.4 18 21 13.5 24.3-1.2.9.8 2.1 2.4 2.8 1.2.6 1.9 1.7 2.1 3 .5 5.1 1.4 17.5-2.1 21.2-.2.2-.4.3-.7.3h-1.8l.7 3.3s-2.7 3-3.6 4.8c-.2.4-.6.7-1.1.7h-1.1c-.4 0-.6 0-.6.1 0 .2.7 4.2.7 4.2s-1 3.4-4.1 3.4c-.4 0-.9-.1-1.3-.2h-.3c-.6 0-1.1.5-1.2 1.1-.1 1-.7 2.1-2.3 2.7-.1 0-.2.1-.3.1-.8.6-5.6 4.1-10 4.4l-11.8 2h-.4c-1.5 0-6.9-.1-7.6-1.8-.3-.7-.6-1.3-.9-1.8-.4-.6-1-.9-1.7-.9-.4 0-.7.1-1.1.3L31 85.1s-7.3-.2-9.3-4.7c0 0-14.7-4.3-16.2-17.7 0 0-1.7-5.4-1.4-8.6V54c.2-.2 1.5-1.7 2.1-2.5.2-.2.1-.6-.2-.6l-3.3-.7c-.3-.2-.4-.5-.5-.8-.4-3.1-2.4-19.9 5.9-28.2l2.7-3.9c.4-.6 2.5-3.7 2.9-4.3 0-.1.1-.1.1-.2.8-1 6.9-8.2 14.1-8.4 0 0 9-2.8 12-2.8 2.3 0 3.6.4 6 2.1.6.4 1.2.6 1.9.6.9 0 1.7-.3 2.4-.9.7-.6 1.7-1.3 2.9-1.8.7-.2 1.3-.4 2-.4zm0-1c-.8 0-1.6.1-2.3.4-1.2.5-2.3 1.1-3.2 1.9-.5.4-1.1.7-1.7.7-.5 0-.9-.1-1.3-.4C44.1 1 42.6.5 40 .5c-1.3 0-3.8.5-7.4 1.5-1.4.4-2.6.7-3.4 1-.4.1-.8.2-1.1.3-.1 0-.2.1-.3.1-1.6.1-8.3.8-14.7 8.8-.1.1-.1.2-.2.3-1.1 1.7-2.5 3.9-2.8 4.3l-2.7 3.8c-8.5 8.6-6.6 25.6-6.1 29 .1.6.4 1.1.8 1.4.1.1.3.2.4.2l2.3.5-1.5 1.7c-.2.2-.3.4-.3.7-.3 3.1 1.2 8.1 1.5 8.9C6 75.6 18.4 80.4 20.9 81.3c2.5 4.6 9.7 4.8 10 4.8.2 0 .4 0 .5-.1l4.1-2.5c.2-.1.3-.1.5-.1.4 0 .7.2.9.5.3.6.6 1.1.9 1.7.7 1.6 3.5 2.5 8.5 2.5h.5l11.8-2c4.6-.3 9.6-3.9 10.5-4.6 1.7-.5 2.8-1.8 3-3.5 0-.2.1-.3.2-.3.6.2 1.1.2 1.7.2 3.8 0 5-3.9 5.1-4.1 0-.1.1-.3 0-.5-.2-1.1-.4-2.3-.5-3.1h.5c.8 0 1.6-.5 2-1.2.8-1.6 3.4-4.5 3.4-4.6.2-.2.3-.6.2-.9l-.4-2.1h.5c.6 0 1.1-.2 1.4-.6 3.6-3.9 3.1-15.5 2.4-22-.2-1.6-1.2-3.1-2.6-3.8-1.3-.6-1.8-1-2-1.3 1-.9 1.4-2.2 1.1-4.1-.8-6.6-9.8-19.6-15-21.8-2.2-.9-4.3-2.3-6.3-3.7C60.9 2.2 58 .2 55.1.2z"/><path d="M11.1 18.7c1.1.6 2.3 1.1 3.4 1.7.6.3 1.1.5 1.7.9.5.3 1.1.7 1.5 1.1-.6-.2-1.2-.5-1.8-.7-.6-.3-1.1-.6-1.6-1-1-.6-2.1-1.2-3.2-2zm-3 2.6c.9.3 1.8.6 2.8.9.5.2.9.3 1.4.5.4.2.9.4 1.3.8-.5-.1-1-.2-1.4-.3-.5-.2-.9-.4-1.3-.6-1-.4-1.9-.9-2.8-1.3zm2.2-.7c.9.2 1.8.5 2.7.8.4.1.9.2 1.3.4s.8.4 1.2.7c-.5 0-.9-.1-1.4-.3-.4-.1-.9-.3-1.3-.5-.9-.3-1.7-.7-2.5-1.1zm-3.5 4.3c1 0 2 0 3 .1.5.1 1 .1 1.5.3.5.2.9.4 1.3.7l-1.6-.3c-.5-.1-.9-.2-1.4-.4-.9-.1-1.9-.3-2.8-.4zM5.5 28c.9-.3 1.9-.5 2.9-.5.5 0 1 0 1.5.1.5.2 1 .4 1.2.9-.4-.3-.9-.4-1.3-.5-.5-.1-.9-.2-1.4-.2-1 0-1.9.1-2.9.2zm-1.9 4.6c.8-.1 1.6-.1 2.3-.2.4 0 .8-.1 1.2-.1.4 0 .8.1 1.2.2-.4.1-.8.2-1.2.2-.4 0-.8 0-1.2-.1-.7.2-1.5.1-2.3 0zm0 5.1c.7-.1 1.3-.1 2-.2.3 0 .7-.1 1-.1.3 0 .7.1 1 .2-.3.1-.7.2-1 .2-.3 0-.7 0-1-.1-.6.2-1.3.1-2 0zM2.5 45c.6-.2 1.1-.4 1.7-.5.3-.1.6-.2.9-.2H6c-.3.2-.5.3-.8.4-.3.1-.6.1-.9.1-.6.1-1.2.2-1.8.2zm4.3 16.8c.1-.5.4-.9.7-1.2.3-.4.7-.7 1.1-.9.4-.2.8-.5 1.3-.6.4-.1.9-.2 1.4-.2-.8.4-1.6.7-2.4 1.2-.9.4-1.6.9-2.1 1.7zm1.3 3.4c.6-.7 1.3-1.4 2.1-1.9.7-.6 1.5-1.1 2.4-1.6-.6.7-1.3 1.4-2.1 1.9-.8.7-1.6 1.2-2.4 1.6zm1.5 2.6c.5-.7 1.1-1.3 1.8-1.9.7-.6 1.3-1.1 2.1-1.6-.5.7-1.1 1.3-1.8 1.9-.6.6-1.3 1.1-2.1 1.6zm1.2 2.1c.5-.8 1-1.5 1.6-2.1.6-.6 1.2-1.3 2-1.8-.5.8-1 1.5-1.6 2.1-.6.6-1.2 1.3-2 1.8zm7-58.3c.6 1.1 1.1 2.3 1.5 3.5.4 1.2.8 2.4 1 3.7-.6-1.1-1.1-2.3-1.5-3.5-.4-1.2-.8-2.4-1-3.7zm2-2.8c.6 1.4 1 2.9 1.3 4.4.4 1.5.7 3 .8 4.5-.6-1.4-1-2.9-1.3-4.4-.3-1.5-.6-3-.8-4.5zm2.8-1.4c.5 1.3.8 2.5 1.1 3.8.1.7.3 1.3.4 2 .1.7.2 1.3.2 2-.2-.6-.4-1.3-.5-1.9-.2-.6-.3-1.3-.5-1.9-.3-1.4-.6-2.7-.7-4zm3.9-1.3c.3 1.3.4 2.6.5 3.9 0 .7 0 1.3-.1 2s-.2 1.3-.4 2V6.1zm3.8-.9c.2.5.2 1.1.3 1.6.1.5.1 1.1 0 1.7 0 .6-.1 1.1-.2 1.6s-.3 1.1-.7 1.5c.2-.5.3-1 .3-1.6.1-.5.1-1.1.1-1.6.1-1.1.1-2.1.2-3.2zM34 3.6c.1 1.1 0 2.2-.2 3.3-.1.5-.3 1.1-.5 1.6s-.5 1-.8 1.5c.3-1.1.6-2.1.8-3.2.2-1 .4-2.1.7-3.2zm9.3-.7c.2.8.5 1.7.7 2.5.1.4.2.8.3 1.3 0 .4.1.9 0 1.3-.2-.4-.3-.8-.5-1.2-.1-.4-.1-.9-.2-1.3-.2-.9-.3-1.7-.3-2.6zm8.8 5.5c.4-1 .8-2.1 1.3-3.1.2-.5.4-1.1.7-1.5.3-.5.5-1 .9-1.4-.1.6-.3 1.1-.5 1.6s-.5 1-.8 1.5c-.5.9-1 1.9-1.6 2.9zm1.4 0c.4-.8.8-1.7 1.3-2.5.2-.4.4-.8.7-1.2.3-.4.5-.8.9-1.1-.1.5-.3.9-.5 1.3s-.5.8-.8 1.2c-.5.8-1 1.5-1.6 2.3zm2 .7c.2-.4.4-.8.7-1.1.2-.1.4-.3.5-.4.2-.2.3-.3.4-.5.5-.8 1-1.5 1.8-1.9-.4.9-.9 1.5-1.7 2.1-.2.1-.3.3-.5.5l-.3.6c-.1.2-.5.5-.9.7zm1.7.9c.2-.5.5-.8.8-1.1.2-.1.4-.3.6-.4.2-.2.3-.3.4-.5.5-.8 1.1-1.5 2-2-.4.9-1 1.5-1.8 2.1-.2.1-.4.3-.5.5-.1.2-.2.4-.4.6-.2.4-.6.7-1.1.8zm2.3 1.3c.2-.4.4-.7.8-.9.2-.1.4-.2.5-.3.2-.1.3-.3.4-.4.5-.7 1.1-1.2 1.9-1.5-.4.8-1 1.3-1.7 1.7-.2.1-.3.2-.5.4-.1.1-.2.3-.4.5-.2.1-.5.3-1 .5zm2.5 1.5c.2-.4.5-.7.8-.9.2-.1.4-.2.5-.3.2-.1.3-.3.4-.4.5-.7 1.1-1.2 1.9-1.5-.4.8-1 1.3-1.7 1.6-.2.1-.3.2-.5.3-.1.1-.2.3-.4.5-.2.3-.6.6-1 .7zm2.2 2.4c.2-.4.6-.6.9-.8.2-.1.4-.1.6-.2.2-.1.3-.2.5-.4.6-.6 1.4-1 2.2-1-.6.6-1.3.9-2.1 1.2-.2.1-.4.1-.6.3-.2.1-.3.3-.4.4-.2.2-.6.4-1.1.5zm15 16.4c.5-.6 1.1-1.1 1.7-1.7.3-.3.5-.6.9-.8.3-.2.6-.5 1-.6-.2.4-.5.7-.7 1-.3.3-.6.5-.9.7-.7.5-1.3 1-2 1.4zM78 30.3c.4-.8.9-1.5 1.4-2.3.2-.4.4-.8.7-1.1.3-.3.6-.7.9-1-.1.4-.4.8-.6 1.2-.2.4-.5.7-.8 1.1-.5.8-1 1.5-1.6 2.1zm-1.5-1.8c.1-.5.3-.9.5-1.3.1-.2.3-.4.5-.6.1-.2.2-.4.3-.7.3-.9.7-1.8 1.5-2.4-.2 1-.7 1.8-1.3 2.6-.2.2-.3.4-.4.6-.1.2-.1.5-.2.7-.2.4-.5.8-.9 1.1zm4.5 10l3 .6 1.5.3c.5.2 1 .3 1.4.6-.5 0-1-.1-1.5-.2s-1-.3-1.5-.4c-1-.3-1.9-.6-2.9-.9zm0 1.5c1 .4 2 .9 3 1.3.5.2 1 .4 1.5.7.5.3.9.6 1.4 1-.6-.1-1.1-.3-1.6-.5s-1-.5-1.4-.8c-1-.6-2-1.1-2.9-1.7zm-.6 3l3.3 1.8c.6.3 1.1.6 1.7.9.5.4 1 .7 1.5 1.2-.6-.2-1.2-.5-1.7-.8-.6-.3-1.1-.7-1.6-1-1.1-.7-2.2-1.4-3.2-2.1zm-.9 1.8c1.4 1.2 2.7 2.4 4.1 3.6.7.6 1.4 1.2 2 1.8.6.7 1.3 1.3 1.8 2-.8-.5-1.4-1.1-2.1-1.7-.7-.6-1.3-1.3-1.9-1.9-1.4-1.2-2.7-2.5-3.9-3.8zm0 3.5l3.3 3c.5.5 1.1 1 1.6 1.5.5.6 1 1.1 1.4 1.7-.6-.4-1.2-.9-1.7-1.4-.6-.5-1-1.1-1.6-1.6-1-1-2-2.1-3-3.2zm.9 5.6c.9.5 1.9 1 2.8 1.5.5.2 1 .5 1.4.8.4.3.9.6 1.3 1-.5-.1-1-.4-1.5-.6-.5-.2-.9-.6-1.3-.9-1-.6-1.9-1.2-2.7-1.8zm-3.1 7.8c.8.4 1.6.7 2.3 1.1.4.2.8.3 1.1.6.4.2.7.5 1 .8-.4-.1-.8-.3-1.2-.4-.4-.2-.7-.4-1.1-.7-.7-.4-1.4-.8-2.1-1.4zm0 2.6c.3.5.6.9.8 1.4.1.2.3.5.4.7.1.3.2.5.1.8-.2-.2-.4-.4-.5-.6-.1-.2-.2-.5-.3-.8-.2-.5-.4-1-.5-1.5zm-5.4 7.2c.7.3 1.3.6 2 1 .3.2.7.3 1 .5.3.2.6.4.8.8-.4-.1-.7-.2-1.1-.4l-.9-.6c-.6-.4-1.2-.8-1.8-1.3zm-.9 2.2c.5.1 1 .3 1.5.5.2.1.5.1.7.3.2.1.4.3.6.5-.3 0-.5 0-.8-.1-.2-.1-.5-.2-.7-.4-.4-.2-.9-.4-1.3-.8zm-3.9 5.5c-.4-.2-.8-.5-1.1-.8-.2-.1-.4-.2-.5-.4-.1-.2-.3-.4-.3-.6.3 0 .5.2.7.3.2.1.3.3.5.5.2.3.5.6.7 1zM64.2 82c-.4-.6-.9-1.2-1.3-1.7l-.6-.9c-.1-.3-.3-.7-.4-1 .3.2.5.5.8.8.2.3.4.6.5.9.4.6.8 1.2 1 1.9zm-21.7 3c.1-.6.3-1.2.5-1.8.3-.6.5-1.1 1-1.6-.1.6-.3 1.2-.5 1.8-.3.6-.6 1.1-1 1.6zm3.3 0c0-.6.1-1.2.3-1.8.2-.6.4-1.1.8-1.6 0 .6-.1 1.2-.3 1.8-.2.6-.5 1.1-.8 1.6zm4.1 0c-.2-.6-.2-1.1-.2-1.7 0-.6.1-1.1.2-1.7.2.6.2 1.1.2 1.7 0 .6 0 1.1-.2 1.7zm-23.4-3c.6-.6 1.4-1.1 2.1-1.6.7-.5 1.5-.9 2.4-1.2-.6.6-1.4 1.1-2.1 1.6-.8.5-1.5.9-2.4 1.2zm-2.3-1.8c.3-.5.7-.8 1.1-1.1.4-.3.9-.6 1.4-.7-.3.5-.7.8-1.1 1.1-.4.2-.8.5-1.4.7z" fill="#7A6356" fill-rule="nonzero"/></g></svg>