<svg width="61" height="70" viewBox="0 0 61 70" fill="none" xmlns="http://www.w3.org/2000/svg"><path fill="#fff" d="M0 0h61v70H0z"/><path d="M56.08 9.6l-2.6 5v.1c0 .1 0 .1-.2.2l-8.8 16.8v.2c0 .1-.1.2-.2.2l-1.6 3.1v.2c0 .1-.1.2-.3.2l-4.4 8.4v.2c0 .1-.1.2-.3.2L27.88 63c-.7 1.4-2.1 2.3-3.5 2.3s-2.8-.8-3.5-2.2l-2.3-4.2c-.2-.1-.3-.2-.3-.2v-.3l-1.9-3.5c-.2-.1-.2-.2-.3-.2v-.2L5.48 35.1c-.2-.1-.3-.2-.3-.3v-.2l-.6-1.1c-1.1-2-.6-4.6 1.2-6 .7-.5 1.5-.8 2.4-.8 1.2 0 2.4.6 3.2 1.6l12.8 17 3-4.8c-.1-.1-.1-.1-.1-.2v-.2c0-.1.1-.2.5-.2l11.8-19-.1-.1v-.2c0-.1.1-.2.5-.3L49.28 5c.8-1.2 2-2 3.4-2 .8 0 1.5.2 2.2.7 1.7 1.1 2.3 3.8 1.2 5.9zm-9.8 1.6c.6 0 1.6.1 3.3.2 1.1.1 2.3.1 3.1.2-.7-.3-1.6-.6-2.3-.8-1.9-.7-2.7-1-3.1-1.2l-1 1.6zm-1.7 2.8c.6 0 1.8.1 4.1.2 1.2.1 2.7.2 3.6.2-.8-.3-1.9-.7-2.9-1.1-2-.7-3-1.1-3.5-1.3l-1.3 2zm-4.2 6.7c.9.3 2.2.8 3.4 1.2 2.3.8 3.4 1.2 3.9 1.5l1.6-3c-.5.1-1.8.1-4.9.1-1.3 0-2.9 0-3.9.1l-.1.1zm-2.6 4.3l-2 3.2c.5-.1 1.7-.2 4.8-.3 1.5 0 3.3-.1 4.2-.2-.7-.3-2.1-.8-3.1-1.1-3-1.1-3.7-1.4-3.9-1.6zm-3.9 6.3c.8 0 2.2.1 4.8.2 1.7.1 3.7.2 4.7.2-.8-.3-2.3-.8-3.5-1.3-3.5-1.2-4.2-1.5-4.4-1.8l-1.6 2.7zm-3.5 5.7c.2 0 .5.1.8.1 1 .2 2.4.4 3.7.6 1.4.3 3.1.6 4.2.7-.9-.3-2.1-.8-3.2-1.2-3.5-1.2-4.3-1.6-4.5-1.8l-1 1.6zm-1.8 2.8c.9.1 2.3.2 4.4.5 1.7.2 3.8.4 4.9.5-.9-.4-2.5-.9-3.9-1.4-2.3-.8-3.5-1.3-4.2-1.6l-1.2 2zm-3.7 6c.3 0 .7.1 1.2.2 1 .2 2.4.4 3.8.6 1.5.3 3.3.6 4.4.7-.9-.4-2.4-.9-3.7-1.3-3-1.1-4.2-1.5-4.7-1.8l-1 1.6zm-10-11.1c-.6.1-1.9.1-4.5.1h-3.9l.1.2c1.4.6 3.9 1.5 6 2.2 3 1.1 4.8 1.7 5.9 2.2l-3.6-4.7zm4.5 5.9c-.6 0-2-.1-5.4-.5-1.7-.2-3.7-.5-4.8-.5 1.3.6 4.5 1.7 7.1 2.7 2.9 1 4.8 1.7 6 2.2l-2.9-3.9zm-5.4 8.1c.6-.2 2.6.2 9.6 1.5 3.4.7 7.5 1.5 8.9 1.6-1.5-.8-6.7-2.6-10.9-4.1-5.6-2-8.8-3.2-10.3-3.9l2.7 4.9zm3.1 5.7c.9 0 2.8.2 6.6.6 2.5.3 5.4.6 6.6.6-1.3-.6-4.9-1.9-7.9-3-4.4-1.6-6.8-2.4-7.9-3l2.6 4.8zm.4.7c1.2.5 3.4 1.3 5.2 1.9 4.1 1.5 5.6 2 6.2 2.4l1.7-3.3c-.8 0-2.6-.1-7-.6-2.2-.2-4.8-.5-6.2-.6l.1.2zm15.1-2.8c-1.1-.1-3.5-.5-9-1.6-3.3-.6-7.3-1.4-8.8-1.6 1.3.6 4.9 1.9 7.8 2.9 5.5 1.9 7.7 2.8 8.4 3.3l1.6-3zm-21.9-9.8c.7.1 2.4.4 6.5 1.4 2 .5 4.3 1 5.6 1.3-1.5-.6-4.3-1.6-6.8-2.5-3.4-1.2-5.5-2-6.7-2.5l1.4 2.3zm13.5 4.5l-.8-1.1c-.9-.1-2.6-.5-6.2-1.4-2.2-.5-4.7-1.1-6-1.4 1.7.8 6.6 2.6 10.7 4 7 2.5 10.1 3.7 11.2 4.3l.8-1.5c-.9-.4-2.8-1.1-4.5-1.7-3-1.1-4.3-1.6-4.9-1.8l-.3.6zm10.7.9c-.3 0-.7-.1-1.3-.2-1-.2-2.4-.4-3.8-.6-1.5-.3-3.3-.6-4.4-.7 1 .4 2.6 1 4 1.5 2.6.9 3.9 1.4 4.6 1.7l.9-1.7zm-4.1-2.5c2.8 1 4 1.5 4.6 1.7l1.3-2.5c-.9 0-2.3-.1-4.8-.4-1.8-.2-3.9-.3-5.1-.4.9.5 2.5 1.1 4 1.6zm8.8-6.4c-.3 0-.6-.1-1.1-.2-1-.2-2.4-.4-3.7-.6-1.4-.3-3.1-.6-4.2-.7.9.4 2.4.9 3.6 1.3 2.8 1 4 1.5 4.5 1.7l.9-1.5zm1.6-3.2c-.8 0-2.1-.1-4.3-.2-1.7-.1-3.6-.2-4.6-.2.8.3 2.3.9 3.6 1.3 2.4.8 3.5 1.3 4 1.5l1.3-2.4zm-12.9 4.6c1 .4 2.8 1 4.3 1.6 2.5.9 3.8 1.4 4.6 1.7l1.2-2.3c-.7 0-2.2-.2-5.4-.5-1.6-.3-3.6-.5-4.7-.5zm8.7-5.3c1.6.1 3.5.2 4.5.2-.9-.4-2.5-.9-3.9-1.4-2.5-.9-3.7-1.3-4.3-1.6l-1.7 2.8c.5-.2 1.8-.2 5.4 0zm4.8-.3l1.3-2.5c-.8 0-2.2-.1-4.5-.2-1.7-.1-3.7-.3-4.7-.3.9.4 2.6 1 4 1.5 2 .8 3.2 1.2 3.9 1.5zm1.8-3.6l1.6-3.1c-.6.1-1.8.1-4.6.2-1.5 0-3.3.1-4.2.2.8.3 2.3.9 3.6 1.3 1.9.8 3 1.2 3.6 1.4zm-1.8-5.1c2.5.9 3.4 1.2 3.8 1.5l1.6-3.1c-.7.1-2 .1-4.2.2-1.6.1-3.4.2-4.3.3.7.2 2.1.7 3.1 1.1zm9.1-8.7c-.4.1-1.4.1-4.1 0h-3.3c.7.3 1.8.7 2.7 1 2.6.9 3.3 1.2 3.5 1.4l1.2-2.4zm1.3-2.4c-.7 0-1.8-.1-3.5-.2-1.3-.1-2.7-.2-3.6-.2.7.3 1.7.6 2.6.9 2.8 1 3.4 1.2 3.6 1.4l.9-1.9zm1.5-2.9c-.4.1-1.4 0-4-.1-1.1-.1-2.3-.1-3.1-.2.8.3 1.9.7 2.9 1.1 1.7.6 2.6.9 3.2 1.2l1-2zm-6.9 4.8h3.3c-.7-.3-1.8-.7-2.7-1-2-.7-2.9-1-3.3-1.2l-1.4 2.2h4.1zm3.8-6.7c2.7 1 3.2 1.2 3.3 1.4l1.3-2.5c-.7 0-1.8.1-3.5.1-1.3 0-2.8.1-3.7.1.7.3 1.8.6 2.6.9zm-22.1 49.9c-.6 0-2-.2-4.8-.6-1.4-.2-3-.4-4-.5.9.3 2.2.8 3.4 1.2 3.2 1.1 4.2 1.5 4.5 1.8l.9-1.9zm-1.4 2.7l.1-.1c-.4.1-1.2.1-2.7.2-.7 0-1.5.1-2.1.1.4.2 1 .3 1.4.5 1.1.4 1.7.6 2 .7.6-.4 1-.8 1.3-1.4zm-2.7 1.7c.3 0 .5 0 .7-.1-.4-.2-1-.4-1.4-.5-.7-.3-1.3-.4-1.6-.6.5.8 1.4 1.2 2.3 1.2zm-2.9-2.1c.3-.1 1.1-.1 2.9-.2.7 0 1.6-.1 2.2-.1-.9-.4-2.4-.9-3.7-1.4-1.3-.5-2.2-.8-2.8-1l1.4 2.7zm-2.2-4c.8.1 2.1.2 4.4.5 1.5.2 3.2.4 4.2.5-1.2-.5-3.5-1.3-5.4-2-2.2-.7-3.6-1.2-4.6-1.6l1.4 2.6zM8.78 39c.7 0 2.1.2 5.2.5 1.7.2 3.7.5 4.8.5-1.2-.5-4-1.5-6.3-2.4-2.7-.9-4.4-1.6-5.4-2l1.7 3.4zm-3.4-6.1l.7 1.4h8.3c-1-.4-2.9-1.1-4.6-1.7-2.8-1-4.2-1.5-4.8-1.8-.1.6 0 1.4.4 2.1zm0-3.5c.4-.2 1.1-.4 2-.7.7-.2 1.5-.5 2.1-.7-.4-.2-.9-.3-1.4-.3-.7 0-1.3.2-1.8.6-.4.3-.7.7-.9 1.1zm5.1-.5c-.1-.2-.3-.4-.5-.5-.4.2-1.1.4-2.5.8-.9.3-1.9.6-2.4.8.9.4 3.1 1.2 4.9 1.8 1.8.6 3 1.1 3.8 1.4l-3.3-4.3zm15.9 14.5c.7 0 2.2.1 5.5.4 1.8.2 3.9.3 5 .4-1-.4-2.9-1.1-4.5-1.7-2.3-.8-3.6-1.3-4.4-1.6l-1.6 2.5zm11.7-18.9c.5-.1 1.7-.2 4.9-.3 1.6-.1 3.4-.2 4.3-.3-.8-.3-2.4-.9-3.7-1.4-1.8-.6-2.8-1-3.5-1.3l-2 3.3zm6.3-4.5c1.5 0 3.3 0 4.3-.1-.7-.3-1.8-.7-2.8-1-2.6-.9-3.3-1.2-3.5-1.4l-1.5 2.6c.7-.1 1.9-.1 3.5-.1zm3.4-11.2c.7-.1 1.8-.1 3.9-.2 1.3 0 2.8-.1 3.7-.1-.7-.3-1.8-.7-2.6-1-2.4-.8-3.1-1.1-3.4-1.3l-1.6 2.6zm2.1-3.4c.4-.1 1-.3 1.9-.7.5-.2 1.2-.5 1.6-.7-.3-.1-.6-.1-.9-.1-1 0-2 .5-2.6 1.5zm4.3-1l-.1-.1c-.4.2-1 .4-2.2.9-.6.3-1.4.6-1.9.8.7.2 1.9.7 2.9 1 1.4.5 2.2.8 2.7 1 .3-1.4-.2-2.8-1.4-3.6z" stroke="#A2BF4F" stroke-width=".25"/></svg>