<svg width="313" height="175" viewBox="0 0 313 175" fill="none" xmlns="http://www.w3.org/2000/svg">
<circle cx="7.35" cy="7.35" r="5.85" transform="translate(17.1499 45.15)" stroke="#C4DF9B" stroke-width="3"/>
<circle cx="7.35" cy="7.35" r="5.85" transform="translate(17.1499 94.15)" stroke="#C4DF9B" stroke-width="3"/>
<circle cx="7.35" cy="7.35" r="5.85" transform="translate(17.1499 143.15)" stroke="#C4DF9B" stroke-width="3"/>
<circle cx="24.5" cy="24.5" r="22.5" transform="translate(0 28)" stroke="#C4DF9B" stroke-width="4"/>
<circle cx="24.5" cy="24.5" r="22.5" transform="translate(0 77)" stroke="#C4DF9B" stroke-width="4"/>
<circle cx="24.5" cy="24.5" r="22.5" transform="translate(0 126)" stroke="#C4DF9B" stroke-width="4"/>
<path d="M46.8883 26.6341L54.8821 65.8687C55.2778 67.8108 52.911 69.0837 51.5088 67.6829L35.5857 51.7758C34.6361 50.8271 33.04 51.0647 32.4079 52.2488L27.3511 61.7207C26.9161 62.5356 25.9796 62.9465 25.0853 62.7149L6.27697 57.8436C4.75004 57.4481 3.3876 58.8932 3.87228 60.3942L11.1908 83.0589C11.4333 83.8098 11.1811 84.6139 10.7275 85.2596C9.15254 87.5016 10.1667 89.5306 0.103476 92.2372C-1.85835 92.7649 24.5419 112.538 39.7086 123.898L40.5096 124.498C41.1854 125.004 41.464 125.875 41.2155 126.682L37.3255 139.312C36.8775 140.766 38.1542 142.169 39.6445 141.858L76.331 134.223C77.5728 133.965 78.7385 134.913 78.7385 136.181V171C78.7385 172.105 79.6339 173 80.7385 173H84.2486C85.3531 173 86.2486 172.105 86.2486 171V136.024C86.2486 134.808 87.3243 133.874 88.5281 134.044L124.236 139.084C125.561 139.271 126.692 138.13 126.493 136.807L124.419 122.992C124.309 122.262 124.611 121.531 125.203 121.09L161.763 93.9011C162.861 93.0842 162.833 91.43 161.707 90.6513L153.625 85.0617C152.954 84.5975 152.632 83.7719 152.812 82.9758L157.964 60.1824C158.297 58.7097 156.94 57.4134 155.484 57.8127L137.795 62.6635C136.856 62.9212 135.867 62.4641 135.454 61.5812L131.123 52.3093C130.556 51.0943 128.977 50.7711 127.977 51.6654L113.185 64.9041C111.759 66.1799 109.528 64.9184 109.886 63.0392L116.866 26.431C117.175 24.8132 115.505 23.5368 114.025 24.259L100.359 30.9263C99.3885 31.3996 98.2177 31.0176 97.7134 30.0631L83.5327 3.22122C82.7955 1.82585 80.8082 1.79401 80.0267 3.16505L64.6746 30.0978C64.1411 31.0337 62.9622 31.3789 62.0081 30.8786L49.7769 24.4636C48.2841 23.6807 46.5517 24.9824 46.8883 26.6341Z" transform="translate(148)" fill="#C4DF9B" stroke="#C4DF9B" stroke-width="4"/>
<path d="M0 0H200" transform="translate(25.5 29.5)" stroke="#C4DF9B" stroke-width="4" stroke-linecap="round"/>
<path d="M0 0H200" transform="translate(25.5 77)" stroke="#C4DF9B" stroke-width="4" stroke-linecap="round"/>
<path d="M0 0H200" transform="translate(25.5 126)" stroke="#C4DF9B" stroke-width="4" stroke-linecap="round"/>
<path d="M0 0H200" transform="translate(25.5 173)" stroke="#C4DF9B" stroke-width="4" stroke-linecap="round"/>
</svg>
