<svg width="402" height="255" viewBox="0 0 402 255" fill="none" xmlns="http://www.w3.org/2000/svg">
<circle cx="11" cy="11" r="11" transform="translate(0 231)" fill="#C4DF9B"/>
<circle cx="11" cy="11" r="11" transform="translate(0 209)" fill="#C4DF9B"/>
<circle cx="11" cy="11" r="11" transform="translate(157 188)" fill="#C4DF9B"/>
<circle cx="11" cy="11" r="11" transform="translate(157 166)" fill="#C4DF9B"/>
<circle cx="11" cy="11" r="11" transform="translate(218 231)" fill="#C4DF9B"/>
<circle cx="11" cy="11" r="11" transform="translate(218 209)" fill="#C4DF9B"/>
<circle cx="11" cy="11" r="11" transform="translate(380 179)" fill="#C4DF9B"/>
<circle cx="11" cy="11" r="11" transform="translate(380 161)" fill="#C4DF9B"/>
<path d="M157 0L0 44H217.5L382 0H157Z" transform="translate(11 165.5)" stroke="#C4DF9B" stroke-width="4"/>
<path d="M218 87H5C2.23858 87 0 84.7614 0 82V49.5C0 46.7386 2.23858 44.5 5.00001 44.5H218L381.5 0V32.5L218 87Z" transform="translate(10.5 165.5)" stroke="#C4DF9B" stroke-width="4"/>
<path d="M0 50H218L381 0" transform="translate(11 181)" stroke="#C4DF9B" stroke-width="4"/>
<path d="M0 22L95 0H236" transform="translate(73.5 187.5)" stroke="#C4DF9B" stroke-width="4"/>
<path d="M0 0V36" transform="translate(168 170)" stroke="white" stroke-width="2" stroke-linecap="round"/>
<path d="M0 0V36" transform="translate(229 213)" stroke="white" stroke-width="2" stroke-linecap="round"/>
<path d="M0 0V36" transform="translate(391 163)" stroke="white" stroke-width="2" stroke-linecap="round"/>
<path d="M0 0V36" transform="translate(11 213)" stroke="white" stroke-width="2" stroke-linecap="round"/>
<rect x="2" y="2" width="136" height="126" rx="3" transform="translate(241 20)" stroke="#C4DF9B" stroke-width="4"/>
<rect width="20" height="40" rx="10" transform="translate(253)" fill="#C4DF9B"/>
<rect width="20" height="40" rx="10" transform="translate(301)" fill="#C4DF9B"/>
<rect width="20" height="40" rx="10" transform="translate(349)" fill="#C4DF9B"/>
<rect width="114" height="61" rx="5" transform="translate(252 69)" fill="#C4DF9B"/>
<path d="M13.8125 24H1.38379V21.8799L7.54102 15.1641C8.42969 14.1738 9.06022 13.3486 9.43262 12.6885C9.81348 12.0199 10.0039 11.3512 10.0039 10.6826C10.0039 9.80241 9.75423 9.09147 9.25488 8.5498C8.764 8.00814 8.09961 7.7373 7.26172 7.7373C6.26302 7.7373 5.48861 8.04199 4.93848 8.65137C4.38835 9.26074 4.11328 10.0944 4.11328 11.1523H1.02832C1.02832 10.0267 1.28223 9.0153 1.79004 8.11816C2.30632 7.21257 3.03841 6.51009 3.98633 6.01074C4.94271 5.51139 6.04297 5.26172 7.28711 5.26172C9.08138 5.26172 10.4948 5.71452 11.5273 6.62012C12.5684 7.51725 13.0889 8.76139 13.0889 10.3525C13.0889 11.2751 12.8265 12.2441 12.3018 13.2598C11.7855 14.2669 10.9349 15.4137 9.75 16.7002L5.23047 21.5371H13.8125V24Z" transform="translate(263 84)" fill="white"/>
<path d="M8.11035 18.2598L12.7295 8.37695H14.3193V20H13.0303V10.4609L8.56152 20H7.64844L3.09375 10.2461V20H1.81543V8.37695H3.50195L8.11035 18.2598ZM22.2686 20.2148C21.2803 20.2148 20.3851 19.9714 19.583 19.4844C18.7881 18.9974 18.1686 18.3206 17.7246 17.4541C17.2806 16.5804 17.0586 15.6029 17.0586 14.5215V14.0596C17.0586 12.9424 17.2734 11.9362 17.7031 11.041C18.14 10.1458 18.7451 9.44401 19.5186 8.93555C20.292 8.41992 21.1299 8.16211 22.0322 8.16211C23.443 8.16211 24.5602 8.64551 25.3838 9.6123C26.2145 10.5719 26.6299 11.8861 26.6299 13.5547V14.2744H18.3369V14.5215C18.3369 15.8392 18.7129 16.9385 19.4648 17.8193C20.224 18.693 21.1764 19.1299 22.3223 19.1299C23.0098 19.1299 23.6149 19.0046 24.1377 18.7539C24.6676 18.5033 25.1475 18.1022 25.5771 17.5508L26.3828 18.1631C25.4375 19.5309 24.0661 20.2148 22.2686 20.2148ZM22.0322 9.25781C21.0654 9.25781 20.249 9.6123 19.583 10.3213C18.9242 11.0303 18.5231 11.9827 18.3799 13.1787H25.3516V13.0391C25.3158 11.9219 24.9971 11.0124 24.3955 10.3105C23.7939 9.60872 23.0062 9.25781 22.0322 9.25781ZM33.4297 19.1299C34.3249 19.1299 35.0732 18.8792 35.6748 18.3779C36.2835 17.8695 36.613 17.2142 36.6631 16.4121H37.8984C37.8626 17.1211 37.6406 17.7692 37.2324 18.3564C36.8242 18.9365 36.2799 19.3913 35.5996 19.7207C34.9264 20.0501 34.2031 20.2148 33.4297 20.2148C31.9043 20.2148 30.694 19.6849 29.7988 18.625C28.9108 17.5651 28.4668 16.14 28.4668 14.3496V13.9629C28.4668 12.8171 28.6673 11.8037 29.0684 10.9229C29.4694 10.042 30.0423 9.36165 30.7871 8.88184C31.5391 8.40202 32.4163 8.16211 33.4189 8.16211C34.6937 8.16211 35.7428 8.54167 36.5664 9.30078C37.3971 10.0599 37.8411 11.0589 37.8984 12.2979H36.6631C36.6058 11.3883 36.2764 10.6543 35.6748 10.0957C35.0804 9.53711 34.3285 9.25781 33.4189 9.25781C32.2588 9.25781 31.3564 9.67676 30.7119 10.5146C30.0745 11.3525 29.7559 12.527 29.7559 14.0381V14.4141C29.7559 15.8965 30.0745 17.0531 30.7119 17.8838C31.3564 18.7145 32.2624 19.1299 33.4297 19.1299ZM48.9521 8.37695V20H47.6631V15.3164H44.0537L41.2178 20H39.7998L42.7217 15.1553C41.9268 14.9476 41.3073 14.5465 40.8633 13.9521C40.4264 13.3577 40.208 12.6559 40.208 11.8467C40.208 10.7939 40.584 9.95247 41.3359 9.32227C42.0951 8.69206 43.1191 8.37695 44.4082 8.37695H48.9521ZM41.4971 11.8682C41.4971 12.5485 41.7119 13.1071 42.1416 13.5439C42.5785 13.9808 43.1836 14.2064 43.957 14.2207H47.6631V9.47266H44.376C43.4808 9.47266 42.7754 9.6875 42.2598 10.1172C41.7513 10.5469 41.4971 11.1305 41.4971 11.8682ZM52.5078 8.37695H53.7969V18.915H60.0596V8.37695H61.3486V18.915H62.5303L62.4336 23.4482H61.252V20H52.5078V8.37695ZM72.2842 20C72.1553 19.6348 72.0729 19.0941 72.0371 18.3779C71.5859 18.9652 71.0094 19.4199 70.3076 19.7422C69.613 20.0573 68.8753 20.2148 68.0947 20.2148C66.9775 20.2148 66.0716 19.9033 65.377 19.2803C64.6895 18.6572 64.3457 17.8695 64.3457 16.917C64.3457 15.7855 64.8148 14.8903 65.7529 14.2314C66.6982 13.5726 68.0124 13.2432 69.6953 13.2432H72.0264V11.9219C72.0264 11.0911 71.7686 10.4395 71.2529 9.9668C70.7445 9.48698 69.9997 9.24707 69.0186 9.24707C68.1234 9.24707 67.3822 9.47624 66.7949 9.93457C66.2077 10.3929 65.9141 10.9443 65.9141 11.5889L64.625 11.5781C64.625 10.6543 65.0547 9.85579 65.9141 9.18262C66.7734 8.50228 67.8298 8.16211 69.083 8.16211C70.3792 8.16211 71.3997 8.48796 72.1445 9.13965C72.8965 9.78418 73.2832 10.6865 73.3047 11.8467V17.3467C73.3047 18.471 73.4229 19.3125 73.6592 19.8711V20H72.2842ZM68.2451 19.0762C69.1045 19.0762 69.8708 18.8685 70.5439 18.4531C71.2243 18.0378 71.7184 17.4827 72.0264 16.7881V14.2314H69.7275C68.4456 14.2458 67.443 14.4821 66.7197 14.9404C65.9964 15.3916 65.6348 16.0146 65.6348 16.8096C65.6348 17.4613 65.8747 18.002 66.3545 18.4316C66.8415 18.8613 67.4717 19.0762 68.2451 19.0762Z" transform="translate(283 86)" fill="white"/>
</svg>
