<svg width="317" height="268" viewBox="0 0 317 268" fill="none" xmlns="http://www.w3.org/2000/svg">
<rect x="2" y="2" width="103" height="158" rx="3" transform="translate(92 105)" stroke="white" stroke-width="4"/>
<path d="M52.784 27.1053L7.28402 3.74044C3.95665 2.0318 0 4.44784 0 8.18828V151.5C0 154.261 2.23858 156.5 5 156.5H50.5C53.2614 156.5 55.5 154.261 55.5 151.5V31.5531C55.5 29.6786 54.4515 27.9616 52.784 27.1053Z" transform="translate(203 109)" stroke="white" stroke-width="4"/>
<rect x="1.5" y="1.5" width="118" height="10" rx="3.5" transform="translate(65 78)" stroke="white" stroke-width="3"/>
<rect x="2" y="2" width="30" height="51" rx="3" transform="translate(154 155)" stroke="white" stroke-width="4"/>
<rect x="2" y="2" width="36" height="93" rx="3" transform="translate(106 155)" stroke="white" stroke-width="4"/>
<rect x="0.5" y="0.5" width="47" height="11" rx="4.5" transform="translate(102 252)" fill="white" stroke="white"/>
<rect x="0.5" y="0.5" width="41" height="14" rx="4.5" transform="translate(150 216)" fill="white" stroke="white"/>
<path d="M117.876 0H18.0033C13.5186 0 12.0914 6.04569 16.1026 8.05132C16.6928 8.34638 17.3435 8.5 18.0033 8.5H117.876C121.777 8.5 123.617 3.68399 120.71 1.08272C119.931 0.385486 118.922 0 117.876 0Z" transform="translate(67.5 94)" fill="white"/>
<path d="M97.7977 50.6018L7.29772 3.77593C3.96963 2.05394 0 4.46952 0 8.21671V9.43036C0 11.3135 1.05806 13.0369 2.73735 13.8891L93.2374 59.8145C96.5635 61.5024 100.5 59.0857 100.5 55.3557V55.0426C100.5 53.1736 99.4576 51.4607 97.7977 50.6018Z" transform="translate(188.5 81)" stroke="white" stroke-width="3"/>
<path d="M242.5 93.5H238.75C236.403 93.5 234.5 95.4028 234.5 97.75C234.5 100.097 236.403 102 238.75 102H243.19C244.359 102 245.492 101.59 246.391 100.841L249.201 98.4992C250.341 97.5493 251 96.142 251 94.6581V45C254.296 45 256.178 41.2369 254.2 38.6L250.919 34.2253C248.944 31.5914 245.006 31.5526 242.979 34.1471L239.425 38.6958C237.424 41.2576 239.249 45 242.5 45V93.5Z" transform="translate(0 44)" fill="#C4DF9B"/>
<path d="M6.61973 204H84H98.232C101.442 204 103.82 201.018 103.107 197.889L62.3417 19.0475C61.1916 14.0016 54.0727 13.8133 52.6574 18.7913L1.81033 197.633C0.902613 200.825 3.30053 204 6.61973 204Z" transform="translate(0 44)" fill="#C4DF9B"/>
<path d="M310.256 204H271.515C268.225 204 265.841 200.877 266.696 197.7L284.949 129.903C286.257 125.046 293.109 124.942 294.564 129.756L315.052 197.554C316.022 200.764 313.609 204 310.256 204Z" transform="translate(0 44)" fill="#C4DF9B"/>
<rect width="13" height="14" rx="5" transform="translate(45 252)" fill="white"/>
<rect width="13" height="14" rx="5" transform="translate(284 252)" fill="white"/>
<mask id="path-13-inside-1" fill="white">
<path fill-rule="evenodd" clip-rule="evenodd" d="M44.0693 31.3543C47.7115 28.0605 50 23.2975 50 18C50 8.05887 41.9412 0 32 0C24.8188 0 18.6199 4.20522 15.7313 10.2874C14.8506 10.0991 13.9369 10 13 10C5.82031 10 0 15.8203 0 23C0 28.529 3.45166 33.2518 8.31763 35.1312C8.10974 36.0541 8 37.0143 8 38C8 45.1797 13.8203 51 21 51C25.6921 51 29.8038 48.5141 32.0896 44.7874C33.6708 46.1655 35.7379 47 38 47C42.9706 47 47 42.9706 47 38C47 35.3681 45.8704 33 44.0693 31.3543Z"/>
</mask>
<path d="M44.0693 31.3543L42.0571 29.1293L39.6094 31.3428L42.0457 33.569L44.0693 31.3543ZM15.7313 10.2874L15.1041 13.2211L17.4237 13.7171L18.4412 11.5744L15.7313 10.2874ZM8.31763 35.1312L11.2443 35.7904L11.8131 33.2653L9.39853 32.3327L8.31763 35.1312ZM32.0896 44.7874L34.0606 42.5258L31.3868 40.1955L29.5323 43.2189L32.0896 44.7874ZM47 18C47 22.4144 45.0969 26.3802 42.0571 29.1293L46.0816 33.5794C50.3262 29.7408 53 24.1806 53 18H47ZM32 3C40.2843 3 47 9.71572 47 18H53C53 6.40202 43.598 -3 32 -3V3ZM18.4412 11.5744C20.8517 6.49895 26.0202 3 32 3V-3C23.6175 -3 16.3881 1.91148 13.0214 9.00044L18.4412 11.5744ZM16.3586 7.35374C15.273 7.12163 14.1491 7 13 7V13C13.7247 13 14.4282 13.0766 15.1041 13.2211L16.3586 7.35374ZM13 7C4.16346 7 -3 14.1634 -3 23H3C3 17.4772 7.47716 13 13 13V7ZM-3 23C-3 29.8096 1.2529 35.6185 7.23673 37.9297L9.39853 32.3327C5.65042 30.885 3 27.2483 3 23H-3ZM5.39095 34.472C5.13467 35.6098 5 36.7909 5 38H11C11 37.2376 11.0848 36.4985 11.2443 35.7904L5.39095 34.472ZM5 38C5 46.8366 12.1635 54 21 54V48C15.4772 48 11 43.5228 11 38H5ZM21 54C26.7784 54 31.8384 50.9348 34.6469 46.356L29.5323 43.2189C27.7693 46.0933 24.6059 48 21 48V54ZM30.1186 47.0491C32.2251 48.885 34.986 50 38 50V44C36.4898 44 35.1164 43.4459 34.0606 42.5258L30.1186 47.0491ZM38 50C44.6274 50 50 44.6274 50 38H44C44 41.3137 41.3137 44 38 44V50ZM50 38C50 34.4908 48.4899 31.3299 46.093 29.1397L42.0457 33.569C43.2508 34.6702 44 36.2454 44 38H50Z" transform="translate(207 20)" fill="white" mask="url(#path-13-inside-1)"/>
<circle cx="7.5" cy="7.5" r="6.5" transform="translate(205 12)" stroke="white" stroke-width="2"/>
<circle cx="5" cy="5" r="4.5" transform="translate(213)" stroke="white"/>
</svg>
