<svg xmlns="http://www.w3.org/2000/svg" width="122" height="122" viewBox="0 0 122 122">
    <g fill="none" fill-rule="evenodd">
        <path fill="#C1B4A8" fill-rule="nonzero" d="M96.395 55.884c-.415-1.925-4.644-2.093-3.483-3.432 3.483-4.268-5.887-17.409-9.287-19.668-.166-.084-1.493-.921-3.234-2.26C79.147 29.604 74.089 25 69.61 25c-1.907 0-3.98 1.255-5.058 2.092-.664.503-1.493.67-2.322.503-.332-.084-.58-.335-.746-.586-1.825-2.009-3.566-1.507-4.81-1.59-2.487-.168-9.867 2.678-9.867 2.678-6.303.167-11.692 7.03-11.775 7.114 0 0-1.908 2.93-2.405 3.599l-2.322 3.348c-6.882 6.946-5.224 21.007-4.892 23.602 0 .25.166.502.414.67l1.078.25a1.403 1.403 0 0 1 .747 2.26c-.415.084-.747.419-.747.753-.166 2.679 1.161 7.115 1.161 7.115 1.327 11.215 13.434 14.814 13.434 14.814 1.41 3.18 5.887 3.766 7.297 3.85.248 0 .58.502.829.334l3.317-1.84c1.327-.754 1.824.669 2.156 1.422.663 1.59 6.468 1.674 7.214 1.59h.166l9.702-1.674c3.648-.25 7.628-3.18 8.292-3.682.083-.084.166-.084.249-.084 1.41-.419 1.824-1.423 1.907-2.26.083-.67.663-1.088 1.244-.92 3.482 1.004 4.56-2.679 4.56-2.679s-.58-3.348-.58-3.515c0-.084.746-.084 1.327 0 .414 0 .746-.251.995-.586.746-1.423 2.902-3.934 2.985-4.017l-.58-2.762h1.492a.75.75 0 0 0 .58-.251c2.986-3.013 2.571-14.73 1.742-18.664zm-8.127 6.444c0 7.951-.414 14.647-5.39 19.92-5.306 5.691-14.345 8.704-22.72 8.704-2.57 0-5.058-.335-7.38-.92-9.453-2.511-15.59-9.877-18.823-19.083-1.078-3.097-3.151-6.11-3.151-9.625 0-11.048 7.297-19.166 16.17-24.272 4.311-2.51 7.877-5.356 13.184-5.356 7.131 0 12.438 3.515 17.496 7.7 5.556 4.603 10.614 10.294 11.61 17.91.165 1.34-.996 3.6-.996 5.022z"/>
        <path stroke="#7A6356" stroke-width=".5" d="M88.98 62.5c0 7.917-.419 14.583-5.439 19.833C78.103 88 69.067 91 60.617 91a30.88 30.88 0 0 1-7.446-.917c-9.621-2.416-15.729-9.833-18.992-19C33.092 68 31 65 31 61.5c0-11 7.362-19.083 16.315-24.167 4.35-2.5 7.948-5.333 13.302-5.333 7.195 0 12.55 3.5 17.654 7.667C83.876 44.25 88.98 49.917 89.984 57.5c.167 1.333-1.004 3.583-1.004 5z"/>
        <path fill="#A08675" fill-rule="nonzero" d="M86.059 62.38c0 3.42 0 6.842-.837 10.262-.418 1.669-1.004 3.337-1.841 4.756-.837 1.501-2.009 2.836-3.264 3.92-2.595 2.337-5.692 3.922-8.956 5.006-3.264 1.085-6.696 1.669-10.127 1.669a24.86 24.86 0 0 1-10.127-1.919 22.051 22.051 0 0 1-8.286-6.09c-2.26-2.586-4.018-5.59-5.273-8.844-.335-.834-.586-1.585-.92-2.42l-1.089-2.085C34.67 65.05 34 63.465 34 61.713c0-1.752.167-3.42.586-5.09.418-1.668 1.004-3.336 1.841-4.838.837-1.502 1.758-3.004 2.846-4.255 1.088-1.335 2.343-2.503 3.599-3.67a54.158 54.158 0 0 1 4.185-3.088l4.436-2.67c1.506-.834 3.013-1.751 4.603-2.335 1.59-.584 3.348-.835 5.105-.751 1.758.083 3.432.333 5.106.834 1.674.5 3.264 1.251 4.687 2.17 1.506.917 2.845 1.918 4.268 2.92 1.34 1.084 2.679 2.168 3.934 3.336 2.51 2.336 4.687 5.09 6.193 8.176.754 1.585 1.256 3.17 1.507 4.923.251.834 0 1.752-.251 2.502-.167.835-.502 1.669-.586 2.503zm0 0c0-.834.335-1.668.586-2.503.251-.834.418-1.668.167-2.502-.25-1.669-.837-3.338-1.59-4.84-1.506-3.086-3.683-5.756-6.193-8.092-1.256-1.168-2.595-2.252-3.934-3.337-1.34-1.085-2.762-2.086-4.269-2.92-1.506-.834-3.013-1.585-4.687-2.086-1.59-.5-3.348-.75-5.021-.834a12.906 12.906 0 0 0-5.022.75c-1.59.585-3.097 1.42-4.603 2.253l-4.436 2.67a48.008 48.008 0 0 0-4.185 3.004c-1.34 1.084-2.511 2.336-3.6 3.67-1.087 1.335-2.008 2.754-2.845 4.255-.837 1.502-1.423 3.087-1.841 4.756-.419 1.668-.586 3.337-.586 5.089 0 1.668.586 3.337 1.34 4.922l1.087 2.336c.335.751.586 1.585.92 2.42.67 1.585 1.34 3.17 2.26 4.588.838 1.502 1.842 2.837 3.014 4.172 2.26 2.586 5.105 4.672 8.202 6.007 3.18 1.251 6.612 1.918 10.043 1.835 3.432 0 6.864-.667 10.128-1.669 3.264-1.084 6.36-2.67 8.955-4.922 1.256-1.168 2.427-2.42 3.264-3.921.837-1.502 1.507-3.087 1.925-4.755.837-3.421.921-6.925.921-10.346z"/>
        <path fill="#A08675" fill-rule="nonzero" d="M80.228 49.997c1.507 2.6 3.098 5.201 4.018 8.137.42 1.427.754 2.937.754 4.447 0 1.51-.251 3.02-.67 4.446-.92 2.936-2.511 5.537-4.52 7.802a32.678 32.678 0 0 1-6.866 5.873c-2.596 1.594-5.442 2.684-8.456 3.104-3.014.42-6.112.084-8.958-.923-2.847-.923-5.526-2.433-7.954-4.279-.586-.503-1.172-.922-1.758-1.426l-1.842-1.258c-1.256-.84-2.428-1.846-3.265-3.188-.754-1.342-1.424-2.685-1.842-4.11-.419-1.427-.754-2.937-.838-4.447-.083-1.51 0-3.02.252-4.53.25-1.51.586-2.937 1.088-4.447a36.937 36.937 0 0 1 1.758-4.195l2.177-4.026c.753-1.343 1.507-2.685 2.428-3.86.92-1.174 2.177-2.18 3.516-2.936C51.93 38.671 54.943 38 57.957 38c1.507 0 3.014.168 4.522.336 1.507.167 3.014.419 4.437.839 2.93.67 5.86 1.761 8.372 3.44 1.256.838 2.428 1.845 3.35 3.02.585.503.836 1.258 1.004 2.013.083.923.167 1.678.586 2.349zm-.084 0c-.335-.671-.502-1.426-.67-2.181-.167-.755-.418-1.51-1.004-2.014-1.005-1.174-2.093-2.181-3.35-3.02-2.511-1.678-5.358-2.685-8.288-3.356-2.93-.587-5.944-1.09-8.958-1.09-1.507 0-3.014.167-4.438.503-1.423.336-2.846.923-4.186 1.594-1.34.671-2.511 1.678-3.432 2.852-.921 1.175-1.675 2.433-2.428 3.776l-2.177 4.11a36.937 36.937 0 0 0-1.758 4.195c-.503 1.426-.838 2.852-1.089 4.362-.25 1.51-.335 3.02-.25 4.53.083 1.51.334 3.02.753 4.447.418 1.426 1.088 2.769 1.842 4.11.753 1.26 2.009 2.266 3.181 3.105l1.842 1.342c.586.42 1.172.923 1.758 1.426a29.47 29.47 0 0 0 3.768 2.517c1.34.755 2.679 1.342 4.102 1.762 2.847 1.007 5.944 1.258 8.875.839a21.55 21.55 0 0 0 8.372-3.104c2.595-1.594 4.856-3.524 6.865-5.789 1.926-2.265 3.6-4.866 4.521-7.718.419-1.426.754-2.936.754-4.446 0-1.51-.251-3.02-.67-4.447-.837-3.02-2.344-5.705-3.935-8.305z"/>
        <path fill="#A08675" fill-rule="nonzero" d="M77.044 51.927c1.263 2.103 2.525 4.29 3.283 6.73.42 1.177.589 2.44.673 3.701 0 1.262-.168 2.524-.59 3.701-.757 2.44-2.103 4.627-3.702 6.478-1.6 1.935-3.62 3.533-5.723 4.795-2.104 1.346-4.545 2.187-7.07 2.524-2.525.336-5.05.084-7.406-.757a24.771 24.771 0 0 1-6.565-3.534c-.505-.42-1.01-.757-1.515-1.177l-1.515-1.094c-1.01-.673-2.02-1.514-2.693-2.608-.589-1.093-1.178-2.187-1.515-3.449-.336-1.178-.589-2.44-.673-3.701-.084-1.262 0-2.524.168-3.786.169-1.262.505-2.44.926-3.617a42.28 42.28 0 0 1 1.43-3.45l1.768-3.28a25.491 25.491 0 0 1 2.02-3.197c.842-1.01 1.852-1.85 2.946-2.44C53.479 42.506 56.088 42 58.613 42c2.525 0 4.965.42 7.406 1.01 2.44.588 4.797 1.43 6.901 2.86a13.022 13.022 0 0 1 2.778 2.523c.505.421.673 1.094.841 1.683.085.673.253 1.262.505 1.85zm0 0c-.336-.59-.42-1.178-.589-1.767-.168-.589-.336-1.178-.841-1.598-.842-.926-1.768-1.767-2.778-2.44-2.104-1.346-4.46-2.187-6.901-2.692-2.44-.505-4.881-.841-7.406-.841-1.263 0-2.44.168-3.62.42-1.177.253-2.356.758-3.45 1.346a9.148 9.148 0 0 0-2.777 2.272c-.758.925-1.43 2.019-2.02 3.112l-1.767 3.281c-.59 1.094-1.01 2.272-1.431 3.365-.758 2.356-1.263 4.795-1.094 7.235.084 1.262.252 2.44.589 3.617.336 1.178.841 2.272 1.515 3.365.673 1.01 1.599 1.85 2.609 2.524l1.515 1.093c.505.337 1.01.758 1.43 1.178 1.01.757 2.02 1.43 3.114 2.103a25.227 25.227 0 0 0 3.451 1.515c2.357.757 4.881 1.009 7.322.673 2.44-.421 4.797-1.262 6.901-2.608 2.104-1.262 3.956-2.945 5.64-4.795 1.598-1.851 2.945-4.038 3.702-6.31.421-1.177.59-2.355.59-3.617s-.169-2.44-.59-3.617c-.589-2.44-1.851-4.627-3.114-6.814z"/>
        <path fill="#A08675" fill-rule="nonzero" d="M71.593 50.16c1.515 1.312 3.115 2.624 4.293 4.265.59.82 1.179 1.722 1.516 2.624.336.984.505 1.968.589 2.952.084 2.05-.421 4.1-1.179 5.904-.757 1.886-1.936 3.608-3.283 5.166-1.347 1.558-3.03 2.788-4.883 3.69-1.852.82-3.957 1.312-6.061 1.23-2.02 0-4.125-.41-6.062-1.066-.505-.164-.926-.328-1.43-.492l-1.432-.41c-1.01-.246-2.02-.656-2.862-1.312a13.198 13.198 0 0 1-3.705-4.838C46.337 65.987 46 63.937 46 61.887c0-.984.084-2.05.253-3.034l.505-2.952c.168-.984.42-1.969.757-2.953a9.443 9.443 0 0 1 1.684-2.624c1.431-1.558 3.368-2.624 5.304-3.198 2.02-.574 4.04-.902 6.061-1.066 2.02-.164 4.125 0 6.146.574 1.01.328 1.936.656 2.778 1.23.505.246.842.656 1.094 1.066.421.41.674.902 1.01 1.23zm-.085 0c-.42-.328-.673-.82-.926-1.23-.252-.41-.589-.82-1.01-.984a11.655 11.655 0 0 0-2.778-1.148c-1.936-.492-4.04-.492-5.977-.246-2.02.246-4.041.656-5.893 1.23-1.852.656-3.62 1.64-4.967 3.034-.674.656-1.179 1.476-1.516 2.378-.336.903-.589 1.805-.757 2.789l-.59 2.952a17.474 17.474 0 0 0-.252 2.952c0 1.968.252 3.936.926 5.74.337.902.842 1.804 1.347 2.542.59.82 1.263 1.558 1.936 2.214.758.656 1.684.984 2.61 1.312.926.246 1.936.574 2.862.984.926.328 1.937.574 2.947.82 1.01.164 2.02.246 3.03.246 2.021 0 4.041-.492 5.81-1.394 1.767-.902 3.367-2.214 4.63-3.69 1.262-1.476 2.273-3.198 3.115-5.002.757-1.804 1.262-3.69 1.347-5.658 0-.984-.085-1.968-.421-2.87-.337-.902-.758-1.804-1.347-2.624-1.01-1.64-2.61-2.953-4.126-4.347z"/>
        <path fill="#A08675" fill-rule="nonzero" d="M69.025 52.327c1.178 1 2.44 2.083 3.366 3.416.504.667.841 1.333 1.178 2.083.252.75.42 1.583.42 2.416.084 1.583-.336 3.25-.925 4.75-.59 1.499-1.515 2.915-2.524 4.082-1.094 1.25-2.356 2.25-3.787 2.916-1.43.666-3.113 1.083-4.711 1-1.6 0-3.198-.334-4.712-.834-.842-.333-1.599-.5-2.44-.75-.758-.25-1.599-.5-2.188-1-1.262-1.082-2.272-2.415-2.86-3.915-.59-1.5-.842-3.166-.842-4.75 0-.832.084-1.582.168-2.415l.421-2.333c.168-.75.337-1.583.589-2.333.337-.75.757-1.5 1.346-2.083 1.094-1.166 2.608-2.083 4.123-2.583 1.599-.5 3.197-.75 4.796-.916 1.599-.167 3.281-.083 4.796.417.757.25 1.514.583 2.187 1 .842.416 1.01 1.25 1.6 1.832zm-.084 0c-.589-.583-.841-1.416-1.515-1.75-.673-.416-1.43-.75-2.187-.916-1.515-.416-3.197-.416-4.796-.25a22.58 22.58 0 0 0-4.712 1c-1.514.5-2.86 1.333-3.954 2.5-1.094 1.083-1.515 2.666-1.851 4.249l-.421 2.332c-.084.75-.168 1.583-.168 2.333 0 1.583.168 3.166.757 4.583.589 1.5 1.514 2.749 2.692 3.832 1.178 1 2.945 1.166 4.375 1.75 1.515.5 3.114.916 4.712.833 1.599 0 3.198-.417 4.628-1.083 1.43-.75 2.692-1.75 3.702-3 1.01-1.166 1.851-2.582 2.44-3.999.589-1.416 1.01-3 1.01-4.582 0-1.583-.505-3.166-1.43-4.416-.842-1.25-2.02-2.333-3.282-3.416z"/>
        <path fill="#A08675" fill-rule="nonzero" d="M65.979 55.962c.67.572 1.424 1.226 2.01 1.962.586.736 1.005 1.635 1.005 2.616.084 1.962-.754 3.842-2.01 5.232-.67.736-1.424 1.308-2.346 1.717a5.688 5.688 0 0 1-2.848.49c-.921 0-1.926-.163-2.764-.49-.838-.409-1.843-.327-2.68-.981-.754-.572-1.425-1.39-1.76-2.289-.418-.9-.586-1.88-.586-2.78 0-.98.168-1.88.335-2.78.168-.898.419-1.961 1.173-2.697.67-.736 1.591-1.226 2.513-1.553.921-.245 1.926-.409 2.848-.409.921 0 1.927 0 2.848.327.419.164.921.327 1.256.572.587.246.67.736 1.006 1.063zm-.084.082c-.335-.327-.503-.818-.922-.981a4.006 4.006 0 0 0-1.256-.49 7.85 7.85 0 0 0-2.764 0c-1.76.326-3.686.735-4.775 2.043-.586.572-.838 1.39-1.005 2.29-.168.898-.42 1.798-.42 2.615-.083 1.717.504 3.515 1.844 4.742.586.572 1.591.654 2.513 1.063.837.327 1.759.49 2.68.49 1.843 0 3.519-.981 4.607-2.37 1.09-1.39 1.927-3.026 2.01-4.742.085-.9-.167-1.717-.67-2.535-.418-.899-1.172-1.553-1.842-2.125z"/>
        <path fill="#7A6356" fill-rule="nonzero" d="M62.333 60.078c.407.343.57.171.651.685.082.513-.163 1.113-.57 1.626-.081.171-.244.257-.407.342-.57.343-1.14.343-1.792.086-.163-.086-.408-.086-.652-.257-.57-.513-.652-1.284-.489-1.968.082-.343.082-.685.326-.942.326-.342.733-.513 1.14-.599.49-.085.978-.085 1.385.171.163.172.326.856.408.856zM90.262 72.02c-.16-.076-.32.077-.24.23.642.92 2.087 3.065 3.292 4.75.16-.23.16-.46.16-.69l-.16-.766c-.16-.69.401-1.302 1.124-1.302.24 0 .401-.077.562-.23l-4.738-1.992zM89.839 81.64H90L85 80s.403 1.094.565 1.563c.08.234.16.39.403.546.564.547 1.613 1.172 3.064 2.891v-.313c-.161-.703-.484-2.89-.484-3.046 0-.079.646-.079 1.29 0zM82.982 87.089c-.544-.333-1.165.333-.932.915.233.582.466 1.33.777 1.996.155-.333.31-.665.31-.998.078-.665.621-1.081 1.164-.915.233.083.466.083.699.166l-2.018-1.164zM26.328 70l2.735-1.455.937-1.818L25 66c.078.182.156.273.234.364l1.016.272c.938.273 1.328 1.546.703 2.455-.39.09-.625.454-.625.909z"/>
        <path fill="#7A6356" fill-rule="nonzero" d="M70.518 24.83c3.687 0 7.624 4.236 12.4 6.23 4.858 1.992 15.079 17.44 11.309 20.18-1.005.747.67 1.744 2.01 2.325 1.006.499 1.592 1.412 1.76 2.492.419 4.235 1.173 14.533-1.76 17.606a.764.764 0 0 1-.586.25h-1.508l.587 2.74s-2.262 2.491-3.016 3.986a1.03 1.03 0 0 1-.922.582H89.871c-.336 0-.503 0-.503.083 0 .166.586 3.488.586 3.488s-.837 2.823-3.434 2.823c-.336 0-.754-.083-1.09-.166h-.25c-.503 0-.922.416-1.006.914-.084.83-.587 1.744-1.927 2.242-.084 0-.168.083-.251.083-.67.499-4.692 3.405-8.378 3.654l-9.885 1.661h-.335c-1.257 0-5.78-.083-6.367-1.494a12.45 12.45 0 0 0-.754-1.495c-.335-.499-.838-.748-1.425-.748-.335 0-.586.083-.921.25l-3.602 1.993s-6.116-.167-7.792-3.904c0 0-12.315-3.57-13.571-14.7 0 0-1.424-4.484-1.173-7.142v-.083a36.146 36.146 0 0 0 1.76-2.076c.167-.166.083-.498-.168-.498l-2.765-.582c-.251-.166-.335-.415-.419-.664-.335-2.574-2.01-16.527 4.943-23.42l2.262-3.239c.335-.498 2.094-3.072 2.43-3.57 0-.084.083-.084.083-.167.67-.83 5.78-6.81 11.813-6.976 0 0 7.54-2.325 10.053-2.325 1.926 0 3.016.332 5.026 1.744.503.332 1.005.498 1.592.498.754 0 1.424-.25 2.01-.747a9.337 9.337 0 0 1 2.43-1.495c.586-.166 1.089-.333 1.675-.333zm0-.83c-.67 0-1.34.083-1.926.332-1.006.415-1.927.914-2.681 1.578-.42.332-.922.581-1.424.581-.42 0-.754-.083-1.09-.332-2.094-1.495-3.35-1.91-5.529-1.91-1.089 0-3.183.415-6.199 1.246-1.173.332-2.178.581-2.848.83-.335.083-.67.166-.922.25-.084 0-.167.083-.251.083-1.34.083-6.954.664-12.315 7.308-.084.083-.084.166-.168.249-.921 1.412-2.094 3.239-2.345 3.571l-2.262 3.156c-7.121 7.142-5.53 21.26-5.11 24.084.083.498.334.914.67 1.163.083.083.25.166.335.166l1.926.415-1.256 1.412a.75.75 0 0 0-.252.581c-.25 2.575 1.006 6.727 1.257 7.392 1.257 10.464 11.645 14.45 13.74 15.198 2.094 3.82 8.125 3.986 8.377 3.986.167 0 .335 0 .419-.083l3.434-2.076c.168-.083.252-.083.42-.083.334 0 .586.166.753.415.252.498.503.913.754 1.412.587 1.329 2.932 2.076 7.121 2.076H63.565l9.886-1.661c3.853-.25 8.042-3.239 8.796-3.82 1.424-.415 2.346-1.495 2.513-2.907 0-.166.084-.25.168-.25.503.167.921.167 1.424.167 3.183 0 4.189-3.239 4.273-3.405 0-.083.083-.25 0-.415a52.852 52.852 0 0 1-.42-2.575H90.626c.67 0 1.34-.415 1.675-.996.67-1.33 2.848-3.738 2.848-3.82.168-.167.252-.499.168-.748l-.335-1.744h.419c.502 0 .921-.166 1.173-.498 3.016-3.24 2.597-12.873 2.01-18.271-.167-1.329-1.005-2.575-2.178-3.156-1.089-.498-1.508-.83-1.675-1.08.837-.747 1.172-1.827.921-3.405-.67-5.48-8.21-16.277-12.566-18.104-1.843-.748-3.603-1.91-5.278-3.073C75.377 25.66 72.948 24 70.518 24z"/>
        <g fill="#7A6356" fill-rule="nonzero">
            <path d="M33.619 39.917c.92.5 1.925.916 2.846 1.416.502.25.921.417 1.423.75.419.25.921.584 1.256.917-.502-.167-1.004-.417-1.507-.583-.502-.25-.92-.5-1.34-.834-.837-.5-1.757-1-2.678-1.666zM31.107 42.083c.753.25 1.507.5 2.344.75.419.167.754.25 1.172.417.335.167.754.333 1.089.667-.419-.084-.838-.167-1.172-.25-.42-.167-.754-.334-1.089-.5-.837-.334-1.59-.75-2.344-1.084zM32.949 41.5c.753.167 1.507.417 2.26.667.335.083.754.166 1.089.333.335.167.67.333 1.004.583-.418 0-.753-.083-1.172-.25a5.83 5.83 0 0 1-1.088-.416c-.754-.25-1.423-.584-2.093-.917zM30.019 45.083c.837 0 1.674 0 2.511.084.419.083.837.083 1.256.25.419.166.754.333 1.088.583l-1.34-.25a6.189 6.189 0 0 1-1.171-.333c-.754-.084-1.59-.25-2.344-.334zM28.93 47.667c.754-.25 1.59-.417 2.428-.417.419 0 .837 0 1.256.083.419.167.837.334 1.005.75-.335-.25-.754-.333-1.089-.416-.418-.084-.753-.167-1.172-.167-.837 0-1.59.083-2.428.167zM27.34 51.5c.67-.083 1.34-.083 1.925-.167.335 0 .67-.083 1.005-.083.335 0 .67.083 1.004.167-.334.083-.67.166-1.004.166-.335 0-.67 0-1.005-.083-.586.167-1.256.083-1.925 0zM27.34 55.75c.586-.083 1.088-.083 1.674-.167.251 0 .586-.083.837-.083s.586.083.837.167c-.25.083-.586.166-.837.166s-.586 0-.837-.083c-.502.167-1.088.083-1.674 0zM26.419 61.833c.502-.166.92-.333 1.423-.416.251-.084.502-.167.753-.167h.754c-.251.167-.419.25-.67.333-.251.084-.502.084-.753.084-.503.083-1.005.166-1.507.166zM30.019 75.833c.083-.416.334-.75.586-1 .25-.333.586-.583.92-.75.335-.166.67-.416 1.089-.5a4.963 4.963 0 0 1 1.172-.166c-.67.333-1.34.583-2.01 1-.753.333-1.339.75-1.757 1.416zM31.107 78.667c.502-.584 1.088-1.167 1.758-1.584.586-.5 1.256-.916 2.01-1.333-.503.583-1.089 1.167-1.759 1.583-.67.584-1.34 1-2.009 1.334zM32.363 80.833c.418-.583.92-1.083 1.507-1.583.586-.5 1.088-.917 1.758-1.333-.419.583-.921 1.083-1.507 1.583-.502.5-1.088.917-1.758 1.333zM33.367 82.583c.419-.666.838-1.25 1.34-1.75.502-.5 1.005-1.083 1.674-1.5-.418.667-.837 1.25-1.34 1.75-.501.5-1.004 1.084-1.674 1.5zM39.228 34c.502.917.92 1.917 1.256 2.917.335 1 .67 2 .837 3.083a18.034 18.034 0 0 1-1.256-2.917c-.335-1-.67-2-.837-3.083zM40.902 31.667c.503 1.166.838 2.416 1.089 3.666.335 1.25.586 2.5.67 3.75-.503-1.166-.838-2.416-1.089-3.666s-.502-2.5-.67-3.75zM43.247 30.5c.418 1.083.67 2.083.92 3.167.084.583.252 1.083.335 1.666.084.584.168 1.084.168 1.667a11.06 11.06 0 0 1-.419-1.583c-.167-.5-.251-1.084-.418-1.584-.252-1.166-.503-2.25-.586-3.333zM46.512 29.417c.25 1.083.335 2.166.418 3.25 0 .583 0 1.083-.083 1.666A11.75 11.75 0 0 1 46.512 36v-3.25-3.333zM49.693 28.667c.167.416.167.916.251 1.333.084.417.084.917 0 1.417 0 .5-.084.916-.167 1.333-.084.417-.251.917-.586 1.25a3.44 3.44 0 0 0 .25-1.333c.085-.417.085-.917.085-1.334.083-.916.083-1.75.167-2.666zM52.79 27.333c.084.917 0 1.834-.167 2.75a8.164 8.164 0 0 1-.418 1.334c-.168.416-.419.833-.67 1.25.251-.917.502-1.75.67-2.667.167-.833.335-1.75.586-2.667zM60.577 26.75c.167.667.418 1.417.586 2.083.084.334.167.667.251 1.084 0 .333.084.75 0 1.083-.167-.333-.251-.667-.419-1-.083-.333-.083-.75-.167-1.083a9.565 9.565 0 0 1-.251-2.167zM67.944 31.333c.335-.833.67-1.75 1.089-2.583.167-.417.334-.917.586-1.25.25-.417.418-.833.753-1.167-.084.5-.251.917-.419 1.334-.167.416-.418.833-.67 1.25-.418.75-.836 1.583-1.339 2.416zM69.116 31.333c.335-.666.67-1.416 1.089-2.083.167-.333.335-.667.586-1 .25-.333.418-.667.753-.917-.084.417-.251.75-.418 1.084-.168.333-.419.666-.67 1-.419.666-.837 1.25-1.34 1.916zM70.79 31.917c.168-.334.336-.667.587-.917.167-.083.335-.25.418-.333.168-.167.252-.25.335-.417.419-.667.837-1.25 1.507-1.583-.335.75-.753 1.25-1.423 1.75-.167.083-.251.25-.419.416l-.25.5c-.085.167-.42.417-.754.584zM72.214 32.667c.167-.417.419-.667.67-.917.167-.083.335-.25.502-.333.167-.167.251-.25.335-.417.419-.667.92-1.25 1.674-1.667-.335.75-.837 1.25-1.507 1.75-.167.084-.335.25-.418.417a1.743 1.743 0 0 1-.335.5c-.168.333-.502.583-.921.667zM74.14 33.75c.167-.333.334-.583.67-.75.167-.083.334-.167.418-.25.167-.083.251-.25.335-.333.418-.584.92-1 1.59-1.25-.334.666-.837 1.083-1.423 1.416-.167.084-.25.167-.418.334-.084.083-.168.25-.335.416-.168.084-.419.25-.837.417zM76.233 35a1.97 1.97 0 0 1 .67-.75c.167-.083.334-.167.418-.25.167-.083.251-.25.335-.333.418-.584.92-1 1.59-1.25a2.75 2.75 0 0 1-1.423 1.333c-.167.083-.25.167-.418.25-.084.083-.168.25-.335.417-.168.25-.503.5-.837.583zM78.074 37c.168-.333.503-.5.754-.667.167-.083.335-.083.502-.166.168-.084.251-.167.419-.334.502-.5 1.172-.833 1.842-.833-.503.5-1.089.75-1.758 1-.168.083-.335.083-.503.25-.167.083-.25.25-.335.333-.167.167-.502.334-.92.417zM90.633 50.667c.418-.5.92-.917 1.423-1.417.251-.25.418-.5.753-.667.251-.166.503-.416.838-.5-.168.334-.42.584-.587.834-.25.25-.502.416-.753.583-.586.417-1.088.833-1.674 1.167zM89.628 49.583c.335-.666.753-1.25 1.172-1.916.167-.334.335-.667.586-.917.251-.25.502-.583.754-.833-.084.333-.335.666-.503 1-.167.333-.418.583-.67.916-.418.667-.837 1.25-1.34 1.75zM88.372 48.083c.084-.416.251-.75.419-1.083.083-.167.25-.333.418-.5.084-.167.168-.333.251-.583.252-.75.587-1.5 1.256-2-.167.833-.586 1.5-1.088 2.166-.168.167-.251.334-.335.5-.084.167-.084.417-.167.584a2.607 2.607 0 0 1-.754.916zM92.14 56.417l2.511.5 1.256.25c.419.166.837.25 1.172.5-.419 0-.837-.084-1.256-.167-.418-.083-.837-.25-1.256-.333-.837-.25-1.59-.5-2.427-.75zM92.14 57.667c.837.333 1.674.75 2.511 1.083.419.167.837.333 1.256.583.419.25.753.5 1.172.834-.502-.084-.92-.25-1.34-.417a5.344 5.344 0 0 1-1.172-.667c-.837-.5-1.674-.916-2.427-1.416zM91.637 60.167l2.763 1.5c.502.25.92.5 1.423.75.419.333.837.583 1.256 1a7.437 7.437 0 0 1-1.423-.667c-.503-.25-.921-.583-1.34-.833-.92-.584-1.842-1.167-2.679-1.75zM90.884 61.667c1.172 1 2.26 2 3.432 3 .586.5 1.172 1 1.675 1.5.502.583 1.088 1.083 1.507 1.666-.67-.416-1.172-.916-1.758-1.416-.587-.5-1.089-1.084-1.591-1.584-1.172-1-2.26-2.083-3.265-3.166zM90.884 64.583c.92.834 1.842 1.667 2.763 2.5.418.417.92.834 1.339 1.25.419.5.837.917 1.172 1.417a9.628 9.628 0 0 1-1.423-1.167c-.502-.416-.837-.916-1.34-1.333-.837-.833-1.674-1.75-2.511-2.667zM91.637 69.25c.754.417 1.59.833 2.344 1.25.419.167.838.417 1.172.667.335.25.754.5 1.089.833-.419-.083-.837-.333-1.256-.5-.419-.167-.753-.5-1.088-.75-.838-.5-1.591-1-2.26-1.5zM89.042 75.75c.67.333 1.34.583 1.925.917.335.166.67.25.921.5.335.166.586.416.838.666-.335-.083-.67-.25-1.005-.333a5.635 5.635 0 0 1-.921-.583c-.586-.334-1.172-.667-1.758-1.167zM89.042 77.917c.251.416.502.75.67 1.166.083.167.25.417.335.584.083.25.167.416.083.666-.167-.166-.335-.333-.418-.5a5.725 5.725 0 0 1-.252-.666c-.167-.417-.334-.834-.418-1.25zM84.52 83.917c.587.25 1.09.5 1.675.833.252.167.586.25.838.417.25.166.502.333.67.666a4.093 4.093 0 0 1-.922-.333l-.753-.5c-.502-.333-1.005-.667-1.507-1.083zM83.767 85.75c.419.083.838.25 1.256.417.168.083.419.083.586.25.168.083.335.25.503.416-.252 0-.419 0-.67-.083-.168-.083-.419-.167-.586-.333-.335-.167-.754-.334-1.089-.667zM80.502 90.333a3.717 3.717 0 0 1-.92-.666c-.168-.084-.335-.167-.42-.334-.083-.166-.25-.333-.25-.5.25 0 .418.167.586.25.167.084.25.25.418.417.168.25.419.5.586.833zM78.074 92.667c-.334-.5-.753-1-1.088-1.417l-.502-.75c-.084-.25-.251-.583-.335-.833.251.166.418.416.67.666.167.25.334.5.418.75.335.5.67 1 .837 1.584zM59.907 95.167c.084-.5.251-1 .419-1.5.25-.5.418-.917.837-1.334-.084.5-.251 1-.419 1.5-.251.5-.502.917-.837 1.334zM62.67 95.167c0-.5.083-1 .25-1.5.168-.5.336-.917.67-1.334 0 .5-.083 1-.25 1.5-.168.5-.42.917-.67 1.334zM66.102 95.167c-.167-.5-.167-.917-.167-1.417s.084-.917.167-1.417c.168.5.168.917.168 1.417s0 .917-.168 1.417zM46.512 92.667c.502-.5 1.172-.917 1.758-1.334a7.54 7.54 0 0 1 2.01-1c-.503.5-1.173.917-1.76 1.334-.669.416-1.255.75-2.008 1zM44.586 91.167c.251-.417.586-.667.921-.917.335-.25.753-.5 1.172-.583-.251.416-.586.666-.92.916-.336.167-.67.417-1.173.584z"/>
        </g>
        <path stroke="#998675" stroke-dasharray="4" d="M61 121c33.137 0 60-26.863 60-60S94.137 1 61 1 1 27.863 1 61s26.863 60 60 60z"/>
    </g>
</svg>
