<svg width="61" height="70" viewBox="0 0 61 70" fill="none" xmlns="http://www.w3.org/2000/svg">
<rect width="61" height="70" fill="white"/>
<path d="M52.08 6.6L49.48 11.6V11.7C49.48 11.8 49.48 11.8 49.28 11.9L40.48 28.7C40.48 28.8 40.48 28.9 40.48 28.9C40.48 29 40.38 29.1 40.28 29.1L38.68 32.2C38.68 32.3 38.68 32.4 38.68 32.4C38.68 32.5 38.58 32.6 38.38 32.6L33.98 41C33.98 41.1 33.98 41.2 33.98 41.2C33.98 41.3 33.88 41.4 33.68 41.4L23.88 60C23.18 61.4 21.78 62.3 20.38 62.3C18.98 62.3 17.58 61.5 16.88 60.1L14.58 55.9C14.38 55.8 14.28 55.7 14.28 55.7C14.28 55.6 14.28 55.5 14.28 55.5C14.28 55.5 14.28 55.5 14.28 55.4L12.38 51.9C12.18 51.8 12.18 51.7 12.08 51.7C12.08 51.6 12.08 51.5 12.08 51.5L1.48 32.1C1.28 32 1.18 31.9 1.18 31.8C1.18 31.7 1.18 31.6 1.18 31.6L0.580003 30.5C-0.519997 28.5 -0.0199966 25.9 1.78 24.5C2.48 24 3.28 23.7 4.18 23.7C5.38 23.7 6.58 24.3 7.38 25.3L20.18 42.3L23.18 37.5C23.08 37.4 23.08 37.4 23.08 37.3C23.08 37.2 23.08 37.1 23.08 37.1C23.08 37 23.18 36.9 23.58 36.9L35.38 17.9C35.28 17.8 35.28 17.8 35.28 17.8C35.28 17.7 35.28 17.7 35.28 17.6C35.28 17.5 35.38 17.4 35.78 17.3L45.28 2C46.08 0.8 47.28 0 48.68 0C49.48 0 50.18 0.2 50.88 0.7C52.58 1.8 53.18 4.5 52.08 6.6ZM42.28 8.2C42.88 8.2 43.88 8.3 45.58 8.4C46.68 8.5 47.88 8.5 48.68 8.6C47.98 8.3 47.08 8 46.38 7.8C44.48 7.1 43.68 6.8 43.28 6.6L42.28 8.2ZM40.58 11C41.18 11 42.38 11.1 44.68 11.2C45.88 11.3 47.38 11.4 48.28 11.4C47.48 11.1 46.38 10.7 45.38 10.3C43.38 9.6 42.38 9.2 41.88 9L40.58 11ZM36.38 17.7C37.28 18 38.58 18.5 39.78 18.9C42.08 19.7 43.18 20.1 43.68 20.4L45.28 17.4C44.78 17.5 43.48 17.5 40.38 17.5C39.08 17.5 37.48 17.5 36.48 17.6L36.38 17.7ZM33.78 22L31.78 25.2C32.28 25.1 33.48 25 36.58 24.9C38.08 24.9 39.88 24.8 40.78 24.7C40.08 24.4 38.68 23.9 37.68 23.6C34.68 22.5 33.98 22.2 33.78 22ZM29.88 28.3C30.68 28.3 32.08 28.4 34.68 28.5C36.38 28.6 38.38 28.7 39.38 28.7C38.58 28.4 37.08 27.9 35.88 27.4C32.38 26.2 31.68 25.9 31.48 25.6L29.88 28.3ZM26.38 34C26.58 34 26.88 34.1 27.18 34.1C28.18 34.3 29.58 34.5 30.88 34.7C32.28 35 33.98 35.3 35.08 35.4C34.18 35.1 32.98 34.6 31.88 34.2C28.38 33 27.58 32.6 27.38 32.4L26.38 34ZM24.58 36.8C25.48 36.9 26.88 37 28.98 37.3C30.68 37.5 32.78 37.7 33.88 37.8C32.98 37.4 31.38 36.9 29.98 36.4C27.68 35.6 26.48 35.1 25.78 34.8L24.58 36.8ZM20.88 42.8C21.18 42.8 21.58 42.9 22.08 43C23.08 43.2 24.48 43.4 25.88 43.6C27.38 43.9 29.18 44.2 30.28 44.3C29.38 43.9 27.88 43.4 26.58 43C23.58 41.9 22.38 41.5 21.88 41.2L20.88 42.8ZM10.88 31.7C10.28 31.8 8.98 31.8 6.38 31.8C5.08 31.8 3.48 31.8 2.48 31.8L2.58 32C3.98 32.6 6.48 33.5 8.58 34.2C11.58 35.3 13.38 35.9 14.48 36.4L10.88 31.7ZM15.38 37.6C14.78 37.6 13.38 37.5 9.98 37.1C8.28 36.9 6.28 36.6 5.18 36.6C6.48 37.2 9.68 38.3 12.28 39.3C15.18 40.3 17.08 41 18.28 41.5L15.38 37.6ZM9.98 45.7C10.58 45.5 12.58 45.9 19.58 47.2C22.98 47.9 27.08 48.7 28.48 48.8C26.98 48 21.78 46.2 17.58 44.7C11.98 42.7 8.78 41.5 7.28 40.8L9.98 45.7ZM13.08 51.4C13.98 51.4 15.88 51.6 19.68 52C22.18 52.3 25.08 52.6 26.28 52.6C24.98 52 21.38 50.7 18.38 49.6C13.98 48 11.58 47.2 10.48 46.6L13.08 51.4ZM13.48 52.1C14.68 52.6 16.88 53.4 18.68 54C22.78 55.5 24.28 56 24.88 56.4L26.58 53.1C25.78 53.1 23.98 53 19.58 52.5C17.38 52.3 14.78 52 13.38 51.9L13.48 52.1ZM28.58 49.3C27.48 49.2 25.08 48.8 19.58 47.7C16.28 47.1 12.28 46.3 10.78 46.1C12.08 46.7 15.68 48 18.58 49C24.08 50.9 26.28 51.8 26.98 52.3L28.58 49.3ZM6.68 39.5C7.38 39.6 9.08 39.9 13.18 40.9C15.18 41.4 17.48 41.9 18.78 42.2C17.28 41.6 14.48 40.6 11.98 39.7C8.58 38.5 6.48 37.7 5.28 37.2L6.68 39.5ZM20.18 44L19.38 42.9C18.48 42.8 16.78 42.4 13.18 41.5C10.98 41 8.48 40.4 7.18 40.1C8.88 40.9 13.78 42.7 17.88 44.1C24.88 46.6 27.98 47.8 29.08 48.4L29.88 46.9C28.98 46.5 27.08 45.8 25.38 45.2C22.38 44.1 21.08 43.6 20.48 43.4L20.18 44ZM30.88 44.9C30.58 44.9 30.18 44.8 29.58 44.7C28.58 44.5 27.18 44.3 25.78 44.1C24.28 43.8 22.48 43.5 21.38 43.4C22.38 43.8 23.98 44.4 25.38 44.9C27.98 45.8 29.28 46.3 29.98 46.6L30.88 44.9ZM26.78 42.4C29.58 43.4 30.78 43.9 31.38 44.1L32.68 41.6C31.78 41.6 30.38 41.5 27.88 41.2C26.08 41 23.98 40.9 22.78 40.8C23.68 41.3 25.28 41.9 26.78 42.4ZM35.58 36C35.28 36 34.98 35.9 34.48 35.8C33.48 35.6 32.08 35.4 30.78 35.2C29.38 34.9 27.68 34.6 26.58 34.5C27.48 34.9 28.98 35.4 30.18 35.8C32.98 36.8 34.18 37.3 34.68 37.5L35.58 36ZM37.18 32.8C36.38 32.8 35.08 32.7 32.88 32.6C31.18 32.5 29.28 32.4 28.28 32.4C29.08 32.7 30.58 33.3 31.88 33.7C34.28 34.5 35.38 35 35.88 35.2L37.18 32.8ZM24.28 37.4C25.28 37.8 27.08 38.4 28.58 39C31.08 39.9 32.38 40.4 33.18 40.7L34.38 38.4C33.68 38.4 32.18 38.2 28.98 37.9C27.38 37.6 25.38 37.4 24.28 37.4ZM32.98 32.1C34.58 32.2 36.48 32.3 37.48 32.3C36.58 31.9 34.98 31.4 33.58 30.9C31.08 30 29.88 29.6 29.28 29.3L27.58 32.1C28.08 31.9 29.38 31.9 32.98 32.1ZM37.78 31.8L39.08 29.3C38.28 29.3 36.88 29.2 34.58 29.1C32.88 29 30.88 28.8 29.88 28.8C30.78 29.2 32.48 29.8 33.88 30.3C35.88 31.1 37.08 31.5 37.78 31.8ZM39.58 28.2L41.18 25.1C40.58 25.2 39.38 25.2 36.58 25.3C35.08 25.3 33.28 25.4 32.38 25.5C33.18 25.8 34.68 26.4 35.98 26.8C37.88 27.6 38.98 28 39.58 28.2ZM37.78 23.1C40.28 24 41.18 24.3 41.58 24.6L43.18 21.5C42.48 21.6 41.18 21.6 38.98 21.7C37.38 21.8 35.58 21.9 34.68 22C35.38 22.2 36.78 22.7 37.78 23.1ZM46.88 14.4C46.48 14.5 45.48 14.5 42.78 14.4C41.58 14.4 40.28 14.4 39.48 14.4C40.18 14.7 41.28 15.1 42.18 15.4C44.78 16.3 45.48 16.6 45.68 16.8L46.88 14.4ZM48.18 12C47.48 12 46.38 11.9 44.68 11.8C43.38 11.7 41.98 11.6 41.08 11.6C41.78 11.9 42.78 12.2 43.68 12.5C46.48 13.5 47.08 13.7 47.28 13.9L48.18 12ZM49.68 9.1C49.28 9.2 48.28 9.1 45.68 9C44.58 8.9 43.38 8.9 42.58 8.8C43.38 9.1 44.48 9.5 45.48 9.9C47.18 10.5 48.08 10.8 48.68 11.1L49.68 9.1ZM42.78 13.9C43.98 13.9 45.28 13.9 46.08 13.9C45.38 13.6 44.28 13.2 43.38 12.9C41.38 12.2 40.48 11.9 40.08 11.7L38.68 13.9C39.28 13.9 40.28 13.9 42.78 13.9ZM46.58 7.2C49.28 8.2 49.78 8.4 49.88 8.6L51.18 6.1C50.48 6.1 49.38 6.2 47.68 6.2C46.38 6.2 44.88 6.3 43.98 6.3C44.68 6.6 45.78 6.9 46.58 7.2ZM24.48 57.1C23.88 57.1 22.48 56.9 19.68 56.5C18.28 56.3 16.68 56.1 15.68 56C16.58 56.3 17.88 56.8 19.08 57.2C22.28 58.3 23.28 58.7 23.58 59L24.48 57.1ZM23.08 59.8L23.18 59.7C22.78 59.8 21.98 59.8 20.48 59.9C19.78 59.9 18.98 60 18.38 60C18.78 60.2 19.38 60.3 19.78 60.5C20.88 60.9 21.48 61.1 21.78 61.2C22.38 60.8 22.78 60.4 23.08 59.8ZM20.38 61.5C20.68 61.5 20.88 61.5 21.08 61.4C20.68 61.2 20.08 61 19.68 60.9C18.98 60.6 18.38 60.5 18.08 60.3C18.58 61.1 19.48 61.5 20.38 61.5ZM17.48 59.4C17.78 59.3 18.58 59.3 20.38 59.2C21.08 59.2 21.98 59.1 22.58 59.1C21.68 58.7 20.18 58.2 18.88 57.7C17.58 57.2 16.68 56.9 16.08 56.7L17.48 59.4ZM15.28 55.4C16.08 55.5 17.38 55.6 19.68 55.9C21.18 56.1 22.88 56.3 23.88 56.4C22.68 55.9 20.38 55.1 18.48 54.4C16.28 53.7 14.88 53.2 13.88 52.8L15.28 55.4ZM4.78 36C5.48 36 6.88 36.2 9.98 36.5C11.68 36.7 13.68 37 14.78 37C13.58 36.5 10.78 35.5 8.48 34.6C5.78 33.7 4.08 33 3.08 32.6L4.78 36ZM1.38 29.9L2.08 31.3C2.78 31.3 4.08 31.3 6.28 31.3C7.78 31.3 9.48 31.3 10.38 31.3C9.38 30.9 7.48 30.2 5.78 29.6C2.98 28.6 1.58 28.1 0.980003 27.8C0.880003 28.4 0.980003 29.2 1.38 29.9ZM1.38 26.4C1.78 26.2 2.48 26 3.38 25.7C4.08 25.5 4.88 25.2 5.48 25C5.08 24.8 4.58 24.7 4.08 24.7C3.38 24.7 2.78 24.9 2.28 25.3C1.88 25.6 1.58 26 1.38 26.4ZM6.48 25.9C6.38 25.7 6.18 25.5 5.98 25.4C5.58 25.6 4.88 25.8 3.48 26.2C2.58 26.5 1.58 26.8 1.08 27C1.98 27.4 4.18 28.2 5.98 28.8C7.78 29.4 8.98 29.9 9.78 30.2L6.48 25.9ZM22.38 40.4C23.08 40.4 24.58 40.5 27.88 40.8C29.68 41 31.78 41.1 32.88 41.2C31.88 40.8 29.98 40.1 28.38 39.5C26.08 38.7 24.78 38.2 23.98 37.9L22.38 40.4ZM34.08 21.5C34.58 21.4 35.78 21.3 38.98 21.2C40.58 21.1 42.38 21 43.28 20.9C42.48 20.6 40.88 20 39.58 19.5C37.78 18.9 36.78 18.5 36.08 18.2L34.08 21.5ZM40.38 17C41.88 17 43.68 17 44.68 16.9C43.98 16.6 42.88 16.2 41.88 15.9C39.28 15 38.58 14.7 38.38 14.5L36.88 17.1C37.58 17 38.78 17 40.38 17ZM43.78 5.8C44.48 5.7 45.58 5.7 47.68 5.6C48.98 5.6 50.48 5.5 51.38 5.5C50.68 5.2 49.58 4.8 48.78 4.5C46.38 3.7 45.68 3.4 45.38 3.2L43.78 5.8ZM45.88 2.4C46.28 2.3 46.88 2.1 47.78 1.7C48.28 1.5 48.98 1.2 49.38 1C49.08 0.9 48.78 0.9 48.48 0.9C47.48 0.9 46.48 1.4 45.88 2.4ZM50.18 1.4L50.08 1.3C49.68 1.5 49.08 1.7 47.88 2.2C47.28 2.5 46.48 2.8 45.98 3C46.68 3.2 47.88 3.7 48.88 4C50.28 4.5 51.08 4.8 51.58 5C51.88 3.6 51.38 2.2 50.18 1.4Z" transform="translate(4 3)" stroke="#A2BF4F" stroke-width="0.25"/>
</svg>
